<?xml version="1.0" encoding="utf-8"?>
<!-- Generator: Adobe Illustrator 27.5.0, SVG Export Plug-In . SVG Version: 6.00 Build 0)  -->
<svg version="1.1" xmlns="http://www.w3.org/2000/svg" xmlns:xlink="http://www.w3.org/1999/xlink" x="0px" y="0px"
	 viewBox="0 0 750 500" style="enable-background:new 0 0 750 500;" xml:space="preserve">
<g id="Background_Complete">
	<g>
		<g>
			
				<rect x="151.535" y="143.025" transform="matrix(0.8312 -0.556 0.556 0.8312 -97.7997 162.6891)" style="fill:#F5F5F5;" width="134.991" height="198.769"/>
		</g>
		<g>
			<g>
				<polygon style="fill:#E0E0E0;" points="272.42,279.659 271.146,287.54 215.368,279.505 216.641,271.624 				"/>
			</g>
			<g>
				<polygon style="fill:#E0E0E0;" points="244.329,251.546 252.333,252.7 243.459,307.617 235.454,306.465 				"/>
			</g>
		</g>
		<g>
			<g>
				<path style="fill:none;stroke:#FFFFFF;stroke-miterlimit:10;" d="M228.466,184.995"/>
			</g>
		</g>
		<g>
			<g>
				<path style="fill:#E0E0E0;" d="M192.952,181.745c0.08,0.12-11.165,7.781-25.112,17.11
					c-13.952,9.332-25.324,16.798-25.404,16.678c-0.08-0.119,11.162-7.779,25.115-17.111
					C181.498,189.093,192.872,181.626,192.952,181.745z"/>
			</g>
		</g>
		<g>
			<g>
				<path style="fill:#E0E0E0;" d="M234.216,171.387c0.08,0.12-18.619,12.767-41.759,28.244
					c-23.149,15.483-41.973,27.934-42.053,27.814c-0.08-0.119,18.615-12.764,41.763-28.247
					C215.307,183.721,234.136,171.268,234.216,171.387z"/>
			</g>
		</g>
		<g>
			<g>
				<path style="fill:#E0E0E0;" d="M242.487,183.753c0.08,0.12-18.619,12.767-41.759,28.244
					c-23.149,15.483-41.973,27.934-42.053,27.814c-0.08-0.12,18.615-12.764,41.763-28.247
					C223.579,196.087,242.407,183.634,242.487,183.753z"/>
			</g>
		</g>
		<g>
			<g>
				<path style="fill:#E0E0E0;" d="M250.758,196.12c0.08,0.12-18.619,12.767-41.759,28.244
					c-23.149,15.483-41.973,27.934-42.053,27.814c-0.08-0.119,18.615-12.764,41.763-28.247
					C231.85,208.453,250.678,196,250.758,196.12z"/>
			</g>
		</g>
		<g>
			<g>
				<path style="fill:#E0E0E0;" d="M259.03,208.486c0.08,0.12-18.619,12.766-41.759,28.244
					c-23.149,15.483-41.973,27.934-42.053,27.814c-0.08-0.12,18.615-12.764,41.763-28.247
					C240.121,220.82,258.95,208.367,259.03,208.486z"/>
			</g>
		</g>
	</g>
	<g>
		<g>
			
				<rect x="537.677" y="250.43" transform="matrix(0.8312 -0.556 0.556 0.8312 -85.3099 386.8)" style="fill:#F5F5F5;" width="113.369" height="166.932"/>
		</g>
		<g>
			<g>
				<polygon style="fill:#E0E0E0;" points="639.199,365.18 638.13,371.798 591.285,365.049 592.355,358.431 				"/>
			</g>
			<g>
				<polygon style="fill:#E0E0E0;" points="615.608,341.569 622.33,342.538 614.877,388.659 608.155,387.691 				"/>
			</g>
		</g>
		<g>
			<g>
				<path style="fill:none;stroke:#FFFFFF;stroke-miterlimit:10;" d="M602.285,285.678"/>
			</g>
		</g>
		<g>
			<g>
				<path style="fill:#E0E0E0;" d="M572.46,282.948c0.08,0.12-9.353,6.569-21.067,14.404c-11.718,7.837-21.278,14.092-21.358,13.972
					c-0.08-0.12,9.351-6.568,21.069-14.405C562.817,289.085,572.38,282.829,572.46,282.948z"/>
			</g>
		</g>
		<g>
			<g>
				<path style="fill:#E0E0E0;" d="M607.114,274.249c0.08,0.12-15.613,10.756-35.047,23.755
					c-19.441,13.003-35.26,23.444-35.34,23.324c-0.08-0.12,15.61-10.754,35.051-23.757
					C591.211,284.573,607.034,274.13,607.114,274.249z"/>
			</g>
		</g>
		<g>
			<g>
				<path style="fill:#E0E0E0;" d="M614.061,284.635c0.08,0.12-15.613,10.757-35.047,23.755
					c-19.441,13.003-35.26,23.444-35.34,23.324c-0.08-0.12,15.61-10.754,35.051-23.757
					C598.158,294.958,613.981,284.515,614.061,284.635z"/>
			</g>
		</g>
		<g>
			<g>
				<path style="fill:#E0E0E0;" d="M621.007,295.02c0.08,0.12-15.613,10.756-35.047,23.755
					c-19.441,13.003-35.26,23.444-35.34,23.324c-0.08-0.119,15.61-10.754,35.051-23.757
					C605.104,305.344,620.927,294.901,621.007,295.02z"/>
			</g>
		</g>
		<g>
			<g>
				<path style="fill:#E0E0E0;" d="M627.954,305.406c0.08,0.12-15.613,10.756-35.047,23.755
					c-19.441,13.003-35.26,23.444-35.34,23.324c-0.08-0.119,15.61-10.754,35.051-23.757
					C612.051,315.73,627.874,305.286,627.954,305.406z"/>
			</g>
		</g>
	</g>
	<g>
		<g>
			
				<rect x="295.799" y="90.691" transform="matrix(0.8818 0.4716 -0.4716 0.8818 125.1062 -146.1305)" style="fill:#F5F5F5;" width="116.6" height="171.689"/>
		</g>
		<g>
			<g>
				<polygon style="fill:#E0E0E0;" points="347.422,232.368 340.899,234.602 324.341,188.828 330.865,186.594 				"/>
			</g>
			<g>
				<polygon style="fill:#E0E0E0;" points="357.423,199.529 359.8,206.098 314.34,221.667 311.964,215.098 				"/>
			</g>
		</g>
		<g>
			<g>
				<path style="fill:none;stroke:#FFFFFF;stroke-miterlimit:10;" d="M401.689,160.379"/>
			</g>
		</g>
		<g>
			<g>
				<path style="fill:#E0E0E0;" d="M389.724,131.993c-0.081,0.151-10.509-5.27-23.29-12.105c-12.785-6.838-23.081-12.501-23-12.652
					c0.081-0.15,10.507,5.269,23.292,12.106C379.507,126.178,389.805,131.843,389.724,131.993z"/>
			</g>
		</g>
		<g>
			<g>
				<path style="fill:#E0E0E0;" d="M414.397,159.227c-0.081,0.151-17.34-8.923-38.544-20.263
					c-21.212-11.345-38.337-20.66-38.256-20.811c0.081-0.15,17.336,8.921,38.548,20.266
					C397.349,149.759,414.478,159.076,414.397,159.227z"/>
			</g>
		</g>
		<g>
			<g>
				<path style="fill:#E0E0E0;" d="M408.337,170.559c-0.081,0.151-17.34-8.923-38.544-20.264
					c-21.212-11.345-38.337-20.66-38.256-20.811c0.081-0.15,17.336,8.921,38.548,20.266
					C391.289,161.09,408.417,170.408,408.337,170.559z"/>
			</g>
		</g>
		<g>
			<g>
				<path style="fill:#E0E0E0;" d="M402.276,181.89c-0.081,0.151-17.34-8.923-38.544-20.264
					c-21.212-11.344-38.337-20.66-38.256-20.811c0.08-0.151,17.336,8.921,38.548,20.266
					C385.228,172.422,402.357,181.74,402.276,181.89z"/>
			</g>
		</g>
		<g>
			<g>
				<path style="fill:#E0E0E0;" d="M396.216,193.222c-0.081,0.151-17.339-8.923-38.544-20.264
					c-21.212-11.344-38.337-20.66-38.256-20.811c0.081-0.15,17.336,8.921,38.548,20.266
					C379.168,183.754,396.296,193.072,396.216,193.222z"/>
			</g>
		</g>
	</g>
	<rect x="394.172" style="opacity:0.2;" width="2.583" height="43.983"/>
</g>
<g id="Background_Simple" style="display:none;">
	<path style="display:inline;fill:#EBEBEB;" d="M150.678,164.369c-8.525,67.104,25.888,135.89,80.27,176.118
		s125.939,53.465,192.9,43.873c47.799-6.848,95.212-25.589,128.902-60.181c33.69-34.592,51.453-86.562,37.876-132.9
		c-5.128-17.503-15.198-34.459-31.18-43.246c-25.519-14.03-57.02-3.741-84.176,6.777c-27.156,10.519-58.607,20.881-84.188,6.962
		c-19.655-10.695-29.747-32.698-44.152-49.821c-24.494-29.115-64.281-44.568-102.006-39.618c-4.715,0.619-9.38,1.554-13.964,2.784
		c-40.132,10.768-70.473,43.739-79.227,84.358L150.678,164.369z"/>
</g>
<g id="Lamp">
	<g>
		<g>
			<g>
				<path style="fill:#2AA2D6;" d="M335.233,97.189h120.461c0,0-11.122-53.233-61.143-53.233
					C350.058,43.955,335.233,97.189,335.233,97.189z"/>
			</g>
		</g>
		<rect x="394.172" style="fill:#2AA2D6;" width="2.583" height="43.983"/>
	</g>
</g>
<g id="Floor">
	<g>
		<g>
			<path style="fill:#263238;" d="M663.667,439.828c0,0.144-129.251,0.26-288.653,0.26c-159.457,0-288.68-0.117-288.68-0.26
				c0-0.144,129.223-0.26,288.68-0.26C534.416,439.568,663.667,439.685,663.667,439.828z"/>
		</g>
	</g>
</g>
<g id="Plant">
	<g>
		<g>
			<path style="fill:#2AA2D6;" d="M118.286,377.201c3.381,0.119,6.555,1.954,8.785,4.499c2.23,2.544,3.597,5.743,4.472,9.012
				c1.692,6.323,0.652,13.786-1.151,20.078c-6.846-2.447-11.067-9.747-12.976-13.586
				C114.398,391.138,112.629,378.342,118.286,377.201"/>
		</g>
		<g>
			<path style="fill:#2AA2D6;" d="M140.242,418.454c-2.16-3.101-2.211-7.414-0.503-10.786c1.707-3.372,4.988-5.803,8.601-6.913
				c1.671-0.513,3.609-0.729,5.062,0.242c1.359,0.907,1.946,2.688,1.77,4.312c-0.175,1.624-0.998,3.111-1.969,4.425
				C149.874,414.241,145.825,417.991,140.242,418.454"/>
		</g>
		<g>
			<g>
				<path style="fill:#2AA2D6;" d="M140.995,439.584c-0.033,0.005-0.137-0.464-0.306-1.314c-0.183-0.938-0.42-2.149-0.704-3.604
					c-0.54-3.03-1.397-7.339-0.749-12.103c0.623-4.743,2.511-8.797,4.49-11.218c0.974-1.225,1.907-2.092,2.597-2.625
					c0.334-0.281,0.628-0.453,0.815-0.585c0.191-0.126,0.296-0.185,0.306-0.172c0.075,0.085-1.6,1.117-3.451,3.586
					c-1.875,2.429-3.672,6.414-4.286,11.077c-0.638,4.667,0.152,8.937,0.609,11.983c0.245,1.53,0.442,2.77,0.556,3.631
					C140.985,439.101,141.027,439.58,140.995,439.584z"/>
			</g>
		</g>
		<g>
			<g>
				<path style="fill:#2AA2D6;" d="M120.494,386.826c0.015-0.007,0.11,0.172,0.276,0.518c0.182,0.394,0.416,0.899,0.705,1.524
					c0.605,1.327,1.455,3.258,2.486,5.653c2.063,4.789,4.819,11.446,7.697,18.864c2.877,7.421,5.329,14.197,7.034,19.124
					c0.854,2.464,1.527,4.463,1.975,5.851c0.208,0.657,0.376,1.187,0.506,1.601c0.111,0.368,0.161,0.563,0.146,0.569
					c-0.016,0.005-0.096-0.18-0.236-0.538c-0.152-0.406-0.348-0.927-0.59-1.572c-0.52-1.425-1.238-3.392-2.117-5.799
					c-1.786-4.896-4.286-11.649-7.161-19.065c-2.876-7.413-5.582-14.085-7.564-18.905c-0.974-2.37-1.77-4.307-2.347-5.71
					c-0.256-0.639-0.463-1.156-0.624-1.559C120.544,387.024,120.479,386.833,120.494,386.826z"/>
			</g>
		</g>
		<g>
			<path style="fill:#2AA2D6;" d="M132.869,425.604c-4.037-6.869-11.575-11.553-19.522-12.129c-2.024-0.147-4.458,0.194-5.36,2.011
				c-0.904,1.82,0.305,3.975,1.684,5.468c5.736,6.213,15.44,8.379,23.274,5.195"/>
		</g>
		<g>
			<g>
				<path style="fill:#263238;" d="M116.429,418.892c0.002-0.033,0.452-0.014,1.267,0.047c0.408,0.028,0.907,0.064,1.478,0.171
					c0.57,0.106,1.233,0.168,1.939,0.365c0.711,0.174,1.495,0.348,2.307,0.641c0.828,0.245,1.678,0.599,2.571,0.977
					c1.764,0.801,3.635,1.849,5.417,3.212c1.769,1.379,3.263,2.92,4.478,4.431c0.584,0.775,1.142,1.509,1.577,2.255
					c0.481,0.717,0.838,1.438,1.173,2.088c0.359,0.639,0.571,1.271,0.806,1.802c0.237,0.531,0.385,1.009,0.503,1.401
					c0.243,0.781,0.361,1.215,0.33,1.224c-0.101,0.035-0.588-1.713-1.936-4.273c-0.35-0.633-0.719-1.333-1.207-2.03
					c-0.442-0.726-1.004-1.439-1.587-2.194c-1.214-1.471-2.689-2.974-4.426-4.328c-1.75-1.338-3.581-2.379-5.308-3.189
					c-0.874-0.383-1.706-0.746-2.517-1.003c-0.794-0.304-1.564-0.494-2.261-0.688C118.228,419.091,116.418,418.995,116.429,418.892z
					"/>
			</g>
		</g>
	</g>
</g>
<g id="Character">
	<g>
		<g>
			<g>
				<path style="fill:#263238;" d="M570.361,105.475c-2.94,0.677-4.372,4.06-4.651,7.065c-0.279,3.004,0.104,6.177-1.157,8.918
					c-1.42,3.085-4.812,5.359-4.925,8.754c-0.069,2.069,1.16,4.015,1.101,6.085c-0.097,3.399-3.563,5.968-3.745,9.364
					c-0.131,2.445,1.497,4.792,1.106,7.209c-0.305,1.881-1.769,3.363-2.388,5.165c-1.234,3.593,1.234,7.548,4.449,9.57
					c3.583,2.254,8.171,2.835,12.202,1.547c4.032-1.288,7.433-4.423,9.045-8.336c1.779-4.319,1.39-9.182,1.004-13.836
					c-1.205-14.506-2.101-29.037-2.686-43.581"/>
			</g>
			<g>
				<g>
					<path style="fill:#455A64;" d="M561.824,156.664c-0.063-0.057,0.804-0.315,1.344-1.598c0.261-0.627,0.395-1.471,0.342-2.441
						c-0.034-0.976-0.367-2.039-0.729-3.238c-0.335-1.188-0.772-2.567-0.522-4.1c0.252-1.557,1.366-2.836,2.383-4.092
						c0.512-0.637,1.026-1.299,1.35-2.052c0.342-0.745,0.414-1.598,0.156-2.398c-0.516-1.634-2.117-2.836-2.852-4.722
						c-0.364-0.945-0.368-1.983-0.161-2.918c0.198-0.944,0.58-1.801,0.965-2.617c0.783-1.628,1.645-3.121,1.987-4.706
						c0.702-3.172,0.374-6.2,0.852-8.687c0.433-2.492,1.486-4.365,2.529-5.328c0.508-0.498,1-0.763,1.321-0.942
						c0.342-0.147,0.522-0.215,0.529-0.198c0.034,0.056-0.741,0.294-1.707,1.283c-0.964,0.975-1.931,2.807-2.309,5.246
						c-0.199,1.213-0.228,2.577-0.278,4.041c-0.052,1.463-0.098,3.052-0.47,4.694c-0.347,1.664-1.233,3.216-1.993,4.815
						c-0.752,1.571-1.443,3.413-0.778,5.135c0.635,1.702,2.246,2.911,2.851,4.75c0.296,0.915,0.199,1.929-0.187,2.749
						c-0.367,0.834-0.912,1.516-1.434,2.156c-1.045,1.264-2.091,2.466-2.33,3.866c-0.25,1.392,0.136,2.735,0.451,3.924
						c0.335,1.189,0.658,2.309,0.666,3.326c0.027,1.008-0.143,1.886-0.447,2.535c-0.302,0.653-0.715,1.057-1.025,1.262
						C562.021,156.62,561.824,156.664,561.824,156.664z"/>
				</g>
			</g>
		</g>
		<path style="fill:#B78876;" d="M553.951,180.366l-9.027,26.022l-37.643,2.018l-6.277,13.968l39.3,3.976
			c7.837,3.24,16.791-0.731,19.651-8.714l10.488-29.275L553.951,180.366z"/>
		<g>
			<g>
				<g>
					<path style="fill:#B78876;" d="M631.814,425.697c0,0-27.586-87.617-28.171-90.462c-0.529-2.571,10.011-65.624,11.339-81.942
						l-37.274,1.39c0,0-0.001,0.1-0.003,0.272l-15.844,0.879l14.191,179.193h17.153l-1.701-59.451
						c10.577,28.397,25.734,57.335,25.734,57.335L631.814,425.697z"/>
				</g>
				<g>
					<path style="fill:#A36957;" d="M592.203,396.883c0.015-0.544-0.208-19.919-0.208-19.919
						c-0.214,1.159-6.576-16.823-6.422-17.916C585.652,358.482,592.203,396.883,592.203,396.883z"/>
				</g>
			</g>
			<g>
				<path style="fill:#A36957;" d="M584.847,350.535c-0.039-0.001-0.076,0.385-0.11,1.086c-0.037,0.7-0.045,1.716,0.023,2.971
					c0.024,0.628,0.09,1.314,0.171,2.049c0.094,0.733,0.194,1.519,0.364,2.334c0.311,1.635,0.791,3.405,1.402,5.22
					c1.246,3.624,2.62,6.795,3.596,9.096c0.463,1.049,0.86,1.951,1.194,2.709c0.293,0.635,0.472,0.98,0.509,0.965
					c0.037-0.015-0.073-0.387-0.303-1.048c-0.23-0.661-0.58-1.61-1.026-2.777c-0.88-2.339-2.195-5.534-3.429-9.126
					c-0.605-1.798-1.093-3.537-1.427-5.142c-0.181-0.8-0.297-1.571-0.41-2.292c-0.1-0.723-0.188-1.397-0.237-2.017
					c-0.118-1.237-0.172-2.245-0.203-2.942C584.924,350.922,584.886,350.535,584.847,350.535z"/>
			</g>
		</g>
		<g>
			<g>
				<g>
					<g>
						<path style="fill:#455A64;" d="M575.729,435.91l-0.007-1.611l17.57-0.766l0.048,6.645l-1.084,0.073
							c-4.823,0.282-24.542,1.096-27.769,0.128C560.886,439.3,575.729,435.91,575.729,435.91z"/>
					</g>
				</g>
				<g>
					<g>
						<path style="fill:#263238;" d="M593.584,439.776c0,0.007-0.103,0.019-0.3,0.034c-0.259,0.017-0.543,0.035-0.863,0.055
							c-0.863,0.04-1.924,0.09-3.177,0.148c-2.683,0.106-6.392,0.204-10.489,0.222c-4.099,0.017-7.809-0.048-10.492-0.13
							c-1.253-0.047-2.314-0.088-3.178-0.121c-0.32-0.018-0.604-0.033-0.863-0.048c-0.197-0.013-0.301-0.024-0.3-0.031
							c0-0.007,0.104-0.011,0.302-0.012c0.26,0.002,0.544,0.005,0.865,0.008c0.864,0.014,1.925,0.032,3.178,0.053
							c2.684,0.044,6.392,0.086,10.488,0.068c4.095-0.018,7.802-0.092,10.485-0.16c1.253-0.032,2.315-0.059,3.178-0.081
							c0.321-0.006,0.605-0.011,0.865-0.015C593.48,439.766,593.584,439.769,593.584,439.776z"/>
					</g>
				</g>
				<g>
					<g>
						<path style="fill:#2AA2D6;" d="M570.036,440.342c-0.065,0.008-0.117-0.75-0.599-1.514c-0.469-0.773-1.124-1.158-1.087-1.212
							c0.012-0.053,0.763,0.274,1.268,1.101C570.132,439.538,570.089,440.355,570.036,440.342z"/>
					</g>
				</g>
				<g>
					<g>
						<path style="fill:#2AA2D6;" d="M575.185,437.707c-0.049,0.031-0.297-0.268-0.553-0.669c-0.257-0.401-0.424-0.751-0.375-0.783
							c0.049-0.032,0.297,0.268,0.554,0.669C575.066,437.325,575.234,437.676,575.185,437.707z"/>
					</g>
				</g>
				<g>
					<g>
						<path style="fill:#2AA2D6;" d="M576.597,436.953c-0.039,0.044-0.315-0.139-0.618-0.409c-0.302-0.27-0.515-0.523-0.477-0.567
							c0.039-0.044,0.315,0.139,0.618,0.409C576.423,436.656,576.636,436.91,576.597,436.953z"/>
					</g>
				</g>
				<g>
					<g>
						<path style="fill:#2AA2D6;" d="M577.486,435.3c0.001,0.059-0.407,0.112-0.912,0.12c-0.504,0.007-0.914-0.034-0.915-0.092
							c-0.001-0.059,0.407-0.112,0.912-0.12C577.076,435.201,577.485,435.242,577.486,435.3z"/>
					</g>
				</g>
				<g>
					<g>
						<path style="fill:#2AA2D6;" d="M577.789,434.136c0.02,0.052-0.424,0.254-1.017,0.3c-0.592,0.049-1.063-0.082-1.051-0.136
							c0.01-0.06,0.472-0.028,1.035-0.075C577.318,434.182,577.77,434.078,577.789,434.136z"/>
					</g>
				</g>
				<g>
					<g>
						<path style="fill:#2AA2D6;" d="M574.586,436.184c0.002,0.024-0.429,0.078-1.123-0.003c-0.346-0.04-0.756-0.121-1.197-0.259
							c-0.219-0.077-0.448-0.135-0.685-0.28c-0.111-0.074-0.235-0.178-0.279-0.348c-0.047-0.168,0.042-0.358,0.169-0.45
							c1.072-0.56,2.149,0.04,2.55,0.593c0.22,0.282,0.322,0.558,0.369,0.748c0.046,0.192,0.043,0.302,0.03,0.303
							c-0.04,0.015-0.078-0.442-0.515-0.956c-0.216-0.252-0.542-0.497-0.962-0.62c-0.397-0.116-0.962-0.146-1.339,0.096
							c-0.178,0.133-0.108,0.342,0.091,0.46c0.185,0.119,0.425,0.19,0.632,0.267c0.426,0.145,0.822,0.238,1.158,0.297
							C574.158,436.15,574.586,436.15,574.586,436.184z"/>
					</g>
				</g>
				<g>
					<g>
						<path style="fill:#2AA2D6;" d="M574.295,436.241c-0.016,0.012-0.183-0.274-0.132-0.779c0.026-0.248,0.116-0.543,0.304-0.822
							c0.197-0.25,0.451-0.595,0.933-0.576c0.261,0.033,0.389,0.328,0.348,0.517c-0.02,0.197-0.107,0.366-0.189,0.503
							c-0.166,0.281-0.354,0.509-0.528,0.682c-0.351,0.345-0.629,0.478-0.641,0.457c-0.02-0.027,0.223-0.202,0.531-0.559
							c0.153-0.178,0.32-0.404,0.468-0.676c0.153-0.238,0.257-0.665-0.025-0.715c-0.281-0.026-0.567,0.255-0.738,0.48
							c-0.176,0.244-0.273,0.506-0.315,0.732C574.227,435.941,574.333,436.233,574.295,436.241z"/>
					</g>
				</g>
				<g>
					<g>
						<path style="fill:#2AA2D6;" d="M593.21,434.995c-0.004,0.039-0.501-0.046-1.29,0.05c-0.782,0.09-1.87,0.415-2.814,1.172
							c-0.943,0.759-1.495,1.75-1.752,2.495c-0.264,0.75-0.288,1.254-0.328,1.249c-0.013-0.001-0.02-0.126-0.002-0.353
							c0.017-0.226,0.07-0.553,0.187-0.943c0.226-0.777,0.778-1.822,1.762-2.613c0.984-0.789,2.124-1.102,2.931-1.155
							c0.407-0.03,0.737-0.011,0.961,0.021C593.091,434.948,593.212,434.982,593.21,434.995z"/>
					</g>
				</g>
				<g>
					<g>
						<path style="fill:#2AA2D6;" d="M584.796,438.384c0.007,0.055-1.133,0.237-2.553,0.243c-1.421,0.01-2.562-0.16-2.556-0.215
							c0.006-0.061,1.147,0.013,2.555,0.003C583.649,438.409,584.789,438.323,584.796,438.384z"/>
					</g>
				</g>
				<g>
					<g>
						<path style="fill:#2AA2D6;" d="M588.221,438.347c0.043,0.043-0.093,0.242-0.208,0.505c-0.119,0.261-0.178,0.495-0.239,0.491
							c-0.057,0-0.091-0.276,0.045-0.578C587.954,438.462,588.183,438.305,588.221,438.347z"/>
					</g>
				</g>
				<g>
					<g>
						<path style="fill:#263238;" d="M589.506,436.735c0.042,0.041-0.07,0.223-0.25,0.407c-0.18,0.184-0.36,0.3-0.402,0.259
							c-0.042-0.041,0.07-0.223,0.251-0.407C589.284,436.81,589.464,436.694,589.506,436.735z"/>
					</g>
				</g>
				<g>
					<g>
						<path style="fill:#2AA2D6;" d="M591.351,435.994c-0.012,0.059-0.244,0.058-0.501,0.15c-0.259,0.085-0.441,0.229-0.487,0.189
							c-0.047-0.032,0.099-0.281,0.418-0.389C591.1,435.833,591.368,435.94,591.351,435.994z"/>
					</g>
				</g>
				<g>
					<g>
						<path style="fill:#263238;" d="M592.665,435.643c0.021,0.055-0.079,0.145-0.224,0.201c-0.145,0.057-0.28,0.059-0.301,0.004
							c-0.021-0.054,0.079-0.145,0.224-0.201C592.509,435.591,592.643,435.589,592.665,435.643z"/>
					</g>
				</g>
			</g>
		</g>
		<g>
			<g>
				<g>
					<g>
						<path style="fill:#455A64;" d="M616.893,434.36l-0.667-1.467l15.715-7.895l2.766,6.042l-0.959,0.51
							c-4.284,2.233-21.94,11.052-25.28,11.492C604.742,443.532,616.893,434.36,616.893,434.36z"/>
					</g>
				</g>
				<g>
					<g>
						<path style="fill:#263238;" d="M634.766,430.573c0.003,0.007-0.086,0.059-0.26,0.154c-0.229,0.121-0.481,0.254-0.765,0.404
							c-0.771,0.39-1.719,0.87-2.837,1.437c-2.404,1.196-5.748,2.804-9.478,4.499c-3.732,1.695-7.143,3.155-9.625,4.179
							c-1.162,0.47-2.147,0.868-2.948,1.192c-0.299,0.115-0.565,0.217-0.807,0.31c-0.185,0.069-0.284,0.102-0.287,0.095
							c-0.003-0.007,0.09-0.053,0.271-0.134c0.238-0.104,0.498-0.218,0.792-0.347c0.794-0.341,1.77-0.759,2.921-1.253
							c2.467-1.059,5.866-2.54,9.596-4.234c3.728-1.694,7.08-3.28,9.5-4.441c1.13-0.542,2.087-1.002,2.866-1.376
							c0.29-0.137,0.547-0.258,0.782-0.368C634.666,430.607,634.762,430.566,634.766,430.573z"/>
					</g>
				</g>
				<g>
					<g>
						<path style="fill:#2AA2D6;" d="M613.516,440.735c-0.055,0.034-0.414-0.636-1.167-1.136c-0.744-0.513-1.5-0.596-1.489-0.661
							c-0.01-0.053,0.808-0.063,1.608,0.485C613.273,439.962,613.569,440.725,613.516,440.735z"/>
					</g>
				</g>
				<g>
					<g>
						<path style="fill:#263238;" d="M617.133,436.222c-0.032,0.049-0.381-0.123-0.779-0.383c-0.398-0.261-0.695-0.512-0.663-0.56
							c0.032-0.049,0.381,0.123,0.779,0.383C616.868,435.922,617.165,436.173,617.133,436.222z"/>
					</g>
				</g>
				<g>
					<g>
						<path style="fill:#263238;" d="M618.113,434.956c-0.018,0.056-0.345,0.002-0.731-0.12c-0.386-0.122-0.685-0.266-0.667-0.322
							c0.018-0.056,0.345-0.002,0.731,0.12C617.832,434.756,618.13,434.9,618.113,434.956z"/>
					</g>
				</g>
				<g>
					<g>
						<path style="fill:#263238;" d="M618.247,433.084c0.025,0.053-0.326,0.269-0.782,0.483c-0.457,0.213-0.848,0.343-0.872,0.29
							c-0.025-0.053,0.326-0.269,0.783-0.482C617.831,433.161,618.222,433.031,618.247,433.084z"/>
					</g>
				</g>
				<g>
					<g>
						<path style="fill:#263238;" d="M618.046,431.897c0.039,0.039-0.283,0.406-0.805,0.69c-0.521,0.287-1.003,0.361-1.015,0.306
							c-0.016-0.059,0.419-0.219,0.913-0.492C617.636,432.132,618.005,431.852,618.046,431.897z"/>
					</g>
				</g>
				<g>
					<g>
						<path style="fill:#263238;" d="M615.963,435.078c0.011,0.021-0.36,0.247-1.026,0.457c-0.332,0.105-0.739,0.199-1.198,0.254
							c-0.232,0.019-0.464,0.061-0.74,0.026c-0.132-0.022-0.287-0.066-0.397-0.203c-0.112-0.134-0.108-0.343-0.03-0.479
							c0.748-0.95,1.977-0.844,2.569-0.503c0.317,0.167,0.522,0.377,0.643,0.531c0.12,0.156,0.162,0.258,0.152,0.264
							c-0.03,0.03-0.252-0.371-0.862-0.661c-0.3-0.142-0.698-0.232-1.131-0.172c-0.41,0.057-0.937,0.261-1.182,0.636
							c-0.108,0.194,0.042,0.356,0.271,0.382c0.218,0.032,0.465,0,0.686-0.015c0.448-0.042,0.847-0.119,1.178-0.204
							C615.558,435.222,615.949,435.046,615.963,435.078z"/>
					</g>
				</g>
				<g>
					<g>
						<path style="fill:#263238;" d="M615.721,435.249c-0.009,0.018-0.279-0.175-0.44-0.657c-0.078-0.237-0.116-0.543-0.06-0.874
							c0.078-0.309,0.168-0.727,0.615-0.908c0.251-0.077,0.837,0.427,0.877,0.617c0.063,0.188-0.296,0.091-0.315,0.249
							c-0.036,0.325-0.114,0.609-0.202,0.838c-0.179,0.459-0.378,0.694-0.398,0.68c-0.029-0.017,0.121-0.276,0.256-0.728
							c0.067-0.226,0.126-0.5,0.15-0.808c0.042-0.28-0.038-0.712-0.315-0.642c-0.267,0.091-0.413,0.465-0.477,0.74
							c-0.06,0.294-0.042,0.573,0.012,0.797C615.536,435.004,615.752,435.226,615.721,435.249z"/>
					</g>
				</g>
				<g>
					<g>
						<path style="fill:#263238;" d="M632.466,426.364c0.013,0.038-0.476,0.163-1.157,0.574c-0.677,0.402-1.536,1.144-2.087,2.221
							c-0.55,1.078-0.647,2.209-0.576,2.993c0.066,0.793,0.251,1.262,0.213,1.274c-0.012,0.005-0.07-0.107-0.146-0.321
							c-0.077-0.213-0.162-0.533-0.216-0.937c-0.112-0.801-0.037-1.981,0.537-3.105c0.575-1.123,1.486-1.875,2.201-2.255
							c0.359-0.194,0.668-0.312,0.886-0.375C632.338,426.371,632.462,426.352,632.466,426.364z"/>
					</g>
				</g>
				<g>
					<g>
						<path style="fill:#263238;" d="M626.178,432.903c0.029,0.047-0.936,0.68-2.229,1.267c-1.292,0.591-2.403,0.903-2.42,0.851
							c-0.02-0.058,1.052-0.458,2.332-1.043C625.142,433.396,626.147,432.849,626.178,432.903z"/>
					</g>
				</g>
				<g>
					<g>
						<path style="fill:#263238;" d="M629.287,431.466c0.056,0.021,0.015,0.259,0.017,0.546c-0.002,0.287,0.04,0.524-0.017,0.546
							c-0.052,0.023-0.196-0.214-0.195-0.546C629.091,431.68,629.235,431.443,629.287,431.466z"/>
					</g>
				</g>
				<g>
					<g>
						<path style="fill:#263238;" d="M629.799,429.469c0.055,0.02,0.027,0.232-0.062,0.474c-0.089,0.242-0.206,0.421-0.26,0.401
							c-0.055-0.02-0.027-0.232,0.062-0.474C629.628,429.629,629.745,429.449,629.799,429.469z"/>
					</g>
				</g>
				<g>
					<g>
						<path style="fill:#263238;" d="M631.179,428.038c0.013,0.059-0.199,0.153-0.396,0.341c-0.201,0.184-0.309,0.389-0.367,0.372
							c-0.056-0.01-0.025-0.297,0.222-0.527C630.884,427.993,631.173,427.981,631.179,428.038z"/>
					</g>
				</g>
				<g>
					<g>
						<path style="fill:#263238;" d="M632.234,427.179c0.042,0.041-0.013,0.164-0.121,0.275c-0.109,0.111-0.231,0.168-0.273,0.127
							c-0.042-0.041,0.013-0.164,0.121-0.275C632.07,427.195,632.192,427.138,632.234,427.179z"/>
					</g>
				</g>
			</g>
		</g>
		<g>
			<g>
				<g>
					<g>
						<g>
							<g>
								<g>
									<g>
										<path style="fill:#2AA2D6;" d="M612.564,223.635l-2.926-35.697l15.028,0.268c0,0,0.696-5.263-1.518-16.809
											c-1.358-7.08-6.073-11.422-11.361-14.002l0.001-0.095l-0.459-0.12c-6.725-3.148-13.765-3.592-13.765-3.592l-18.447,0.213
											c0,0-14.092-1.758-21.892,8.288c-3.005,3.87-12.302,30.355-12.302,30.355l22.142,10.663l-2.108-14.687
											c0,0,0.419,10.649,1.778,14.023c0.757,1.88,2.949,7.716,2.949,7.716l-0.286,17.615L612.564,223.635z"/>
									</g>
								</g>
							</g>
						</g>
					</g>
					<g>
						<polygon style="fill:#2AA2D6;" points="602.387,182.756 599.649,194.422 625.48,194.422 623.781,174.864 						"/>
					</g>
					<g>
						<g>
							<path style="fill:#2AA2D6;" d="M625.48,194.422c0.004-0.077-1.302-0.214-3.419-0.338c-2.117-0.124-5.046-0.229-8.284-0.214
								c-3.238,0.016-6.168,0.156-8.283,0.324c-2.115,0.167-3.416,0.346-3.41,0.421c0.006,0.082,1.317,0.045,3.432-0.019
								c2.115-0.065,5.036-0.141,8.265-0.157c3.227-0.014,6.15,0.026,8.267,0.047C624.164,194.508,625.476,194.502,625.48,194.422z"
								/>
						</g>
					</g>
					<g>
						<g>
							<path style="fill:#2AA2D6;" d="M601.273,174.768c-0.079,0.003-0.106,1.137-0.086,2.967c0.02,1.831,0.086,4.357,0.194,7.147
								c0.108,2.79,0.238,5.315,0.361,7.142c0.122,1.826,0.238,2.954,0.316,2.951c0.079-0.003,0.106-1.137,0.086-2.967
								c-0.019-1.83-0.086-4.358-0.194-7.148c-0.108-2.79-0.238-5.314-0.361-7.141C601.467,175.894,601.352,174.765,601.273,174.768
								z"/>
						</g>
					</g>
					<g style="opacity:0.3;">
						<path d="M577.768,184.872c0,0,5.742,42.568,21.881,41.441c0,0,7.266-0.086,9.603-4.916v-1.901L577.768,184.872z"/>
					</g>
				</g>
			</g>
			<g style="opacity:0.3;">
				<polygon points="601.273,177.277 598.184,198.145 600.184,201.807 603.477,194.647 602.083,194.614 				"/>
			</g>
			<g>
				<g>
					<path style="fill:#2AA2D6;" d="M569.686,210.161c-0.034,0.012-0.188-0.344-0.436-0.997c-0.251-0.652-0.584-1.606-0.97-2.794
						c-0.771-2.375-1.724-5.701-2.47-9.445c-0.742-3.747-1.106-7.193-1.224-9.691c-0.06-1.249-0.079-2.261-0.06-2.96
						c0.014-0.699,0.038-1.085,0.074-1.085c0.083-0.001,0.139,1.541,0.353,4.02c0.212,2.479,0.63,5.892,1.368,9.615
						c0.741,3.721,1.633,7.044,2.312,9.44c0.317,1.111,0.588,2.058,0.81,2.838C569.631,209.772,569.72,210.149,569.686,210.161z"/>
				</g>
			</g>
			<g>
				<g>
					<path style="fill:#2AA2D6;" d="M576.212,222.393c-0.138,0.042-0.537-0.877-0.892-2.051c-0.355-1.175-0.532-2.16-0.394-2.202
						c0.138-0.042,0.537,0.877,0.892,2.051C576.173,221.365,576.35,222.351,576.212,222.393z"/>
				</g>
			</g>
			<g>
				<g>
					<path style="fill:#263238;" d="M578.443,222.23c-0.133,0.034-0.569-1.344-0.59-3.112c-0.03-1.768,0.365-3.158,0.498-3.128
						c0.148,0.027-0.008,1.414,0.022,3.12C578.393,220.816,578.591,222.199,578.443,222.23z"/>
				</g>
			</g>
			<g>
				<g>
					<path style="fill:#263238;" d="M567.516,203.596c-0.064,0.129-5.217-2.316-11.508-5.46c-6.293-3.145-11.341-5.797-11.276-5.926
						c0.064-0.129,5.216,2.316,11.509,5.46C562.531,200.814,567.58,203.467,567.516,203.596z"/>
				</g>
			</g>
		</g>
		<g>
			<g>
				<g>
					<g>
						<g>
							<g>
								<g>
									<g>
										<g>
											<path style="fill:#B78876;" d="M576.596,157.253c0.115-5.059,0.144-10.387,0.144-10.387s-6.489-1.25-7.62-9.788
												c-1.078-8.142,1.938-27.247,1.938-27.247l0,0c9.478-3.583,19.328-0.335,25.822,7.345l0,0l-1.612,41.074
												c-0.187,4.768-4.436,8.405-9.54,8.166h0C580.572,166.174,576.486,162.073,576.596,157.253z"/>
										</g>
									</g>
								</g>
								<g>
									<g>
										<g>
											<g>
												<path style="fill:#263238;" d="M570.565,125.1c-0.035,0.575,0.423,1.079,1.023,1.127
													c0.599,0.048,1.114-0.379,1.149-0.954c0.035-0.575-0.423-1.08-1.022-1.128C571.115,124.097,570.6,124.525,570.565,125.1
													z"/>
											</g>
										</g>
									</g>
									<g>
										<g>
											<g>
												<g>
													<path style="fill:#263238;" d="M570.159,123.667c0.132,0.146,0.974-0.444,2.147-0.411
														c1.173,0.016,2.018,0.642,2.149,0.502c0.064-0.062-0.067-0.322-0.435-0.605c-0.362-0.281-0.985-0.562-1.716-0.578
														c-0.731-0.015-1.353,0.238-1.713,0.505C570.223,123.348,570.094,123.602,570.159,123.667z"/>
												</g>
											</g>
										</g>
									</g>
								</g>
								<g>
									<g>
										<g>
											<g>
												<path style="fill:#263238;" d="M582.471,125.841c-0.035,0.575,0.423,1.08,1.023,1.128
													c0.599,0.048,1.114-0.379,1.149-0.954c0.035-0.575-0.423-1.08-1.022-1.128
													C583.021,124.838,582.506,125.266,582.471,125.841z"/>
											</g>
										</g>
									</g>
									<g>
										<g>
											<g>
												<g>
													<path style="fill:#263238;" d="M582.391,124.409c0.132,0.146,0.975-0.444,2.147-0.411
														c1.172,0.017,2.018,0.643,2.149,0.502c0.064-0.062-0.066-0.322-0.435-0.605c-0.362-0.281-0.985-0.562-1.716-0.578
														c-0.731-0.015-1.353,0.238-1.713,0.505C582.456,124.09,582.327,124.344,582.391,124.409z"/>
												</g>
											</g>
										</g>
									</g>
								</g>
								<g>
									<g>
										<g>
											<g>
												<path style="fill:#263238;" d="M577.908,133.001c0.007-0.067-0.719-0.211-1.897-0.393
													c-0.299-0.039-0.581-0.105-0.626-0.311c-0.065-0.218,0.069-0.538,0.223-0.883c0.3-0.718,0.615-1.47,0.945-2.259
													c1.314-3.217,2.274-5.865,2.144-5.917c-0.13-0.052-1.301,2.513-2.615,5.73c-0.317,0.793-0.62,1.55-0.908,2.273
													c-0.122,0.338-0.327,0.719-0.186,1.172c0.075,0.226,0.291,0.394,0.481,0.451c0.191,0.064,0.359,0.071,0.507,0.084
													C577.164,133.044,577.902,133.068,577.908,133.001z"/>
											</g>
										</g>
									</g>
								</g>
								<g>
									<g>
										<g>
											<path style="fill:#A36957;" d="M576.739,146.866c0,0,5.711,0.516,11.465-2.744c0,0-2.913,5.77-11.403,4.754
												L576.739,146.866z"/>
										</g>
									</g>
								</g>
							</g>
						</g>
					</g>
				</g>
			</g>
			<g>
				<g>
					<path style="fill:#263238;" d="M586.147,121.024c-0.241,0.367-1.133,0.204-2.133,0.024c-0.996-0.201-1.886-0.378-1.975-0.808
						c-0.099-0.412,0.934-0.983,2.268-0.727C585.641,119.767,586.391,120.677,586.147,121.024z"/>
				</g>
			</g>
			<g>
				<g>
					<path style="fill:#263238;" d="M574.48,119.302c-0.091,0.428-1.046,0.584-2.148,0.64c-1.103,0.045-2.069-0.023-2.198-0.44
						c-0.132-0.404,0.8-1.062,2.126-1.12C573.585,118.318,574.574,118.887,574.48,119.302z"/>
				</g>
			</g>
			<g>
				<path style="fill:#A36957;" d="M577.927,135.81c-0.247-0.069-0.525,0.072-0.649,0.297c-0.148,0.267-0.08,0.635,0.154,0.832
					c0.233,0.197,0.607,0.202,0.846,0.011c0.239-0.19,0.317-0.556,0.177-0.827c-0.14-0.271-0.483-0.419-0.777-0.335"/>
			</g>
			<g>
				<g>
					<path style="fill:#263238;" d="M578.202,135.926c0.053-0.047-0.188-0.335-0.7-0.223c-0.237,0.052-0.547,0.265-0.641,0.629
						c-0.094,0.342-0.009,0.785,0.353,1.063c0.375,0.264,0.827,0.21,1.125,0.007c0.32-0.21,0.41-0.594,0.36-0.834
						c-0.103-0.527-0.493-0.611-0.504-0.538c-0.044,0.066,0.136,0.249,0.101,0.561c-0.017,0.153-0.09,0.295-0.238,0.367
						c-0.145,0.079-0.376,0.079-0.507-0.022c-0.137-0.098-0.208-0.316-0.18-0.484c0.021-0.168,0.133-0.293,0.269-0.37
						C577.918,135.924,578.165,135.998,578.202,135.926z"/>
				</g>
			</g>
			<g>
				<g>
					<path style="fill:#263238;" d="M592.95,127.208c-1.012,2.344-3.48,4.15-3.138,6.68c0.221,1.633,1.269,3.156,1.065,4.792
						c-0.256,2.054-2.39,3.478-2.692,5.526c-0.37,2.512,2.073,4.464,3.049,6.808c1.421,3.413-0.397,7.252-0.44,10.949
						c-0.065,5.663,4.75,10.953,10.394,11.418c2.283,0.188,4.855-0.501,6.038-2.462c0.977-1.618,0.781-3.674,1.367-5.471
						c0.872-2.676,3.423-4.635,3.961-7.398c0.98-5.037-5.107-9.205-4.707-14.321c0.171-2.186,1.521-4.093,2.094-6.209
						c0.752-2.772,0.063-5.894-1.786-8.092c-1.502-1.787-3.682-2.962-4.961-4.914c-1.451-2.214-1.501-5.021-2.048-7.611
						c-1.333-6.311-6.073-11.793-12.125-14.025c-6.052-2.232-13.216-1.14-18.328,2.793c0,0-1.455,6.591,5.311,7.693
						c6.765,1.102,9.901-0.17,10.664,2.542c0,0-0.771,3.167,2.026,6.193C591.492,125.127,594.121,124.494,592.95,127.208z"/>
				</g>
				<g>
					<g>
						<path style="fill:#455A64;" d="M603.746,172.92c-0.003,0.018-0.214-0.005-0.617-0.064c-0.402-0.063-0.992-0.196-1.721-0.464
							c-1.444-0.528-3.491-1.678-5.235-3.875c-0.866-1.089-1.677-2.409-2.225-3.961c-0.56-1.543-0.88-3.292-0.909-5.134
							c-0.043-1.843,0.218-3.776,0.721-5.71c0.251-0.968,0.578-1.934,0.957-2.893c0.374-0.963,0.834-1.891,1.098-2.873
							c0.285-0.979,0.246-1.979-0.01-2.933c-0.261-0.954-0.705-1.851-1.137-2.738c-0.435-0.886-0.879-1.77-1.165-2.71
							c-0.291-0.932-0.4-1.937-0.21-2.874c0.399-1.884,1.543-3.278,2.218-4.709c0.714-1.417,0.938-2.915,0.905-4.259
							c-0.121-2.724-1.282-4.738-2.23-5.899c-0.988-1.162-1.737-1.605-1.699-1.654c0,0,0.793,0.375,1.853,1.522
							c1.016,1.146,2.269,3.188,2.444,6.015c0.06,1.393-0.154,2.971-0.884,4.464c-0.69,1.483-1.794,2.887-2.135,4.611
							c-0.351,1.737,0.471,3.526,1.362,5.267c0.436,0.888,0.898,1.806,1.18,2.827c0.28,1.014,0.321,2.16,0.013,3.204
							c-0.284,1.049-0.754,1.989-1.119,2.929c-0.374,0.94-0.696,1.885-0.945,2.832c-0.499,1.892-0.763,3.777-0.734,5.572
							c0.012,3.605,1.249,6.756,2.944,8.874c1.661,2.168,3.624,3.338,5.02,3.915C602.897,172.775,603.758,172.861,603.746,172.92z"
							/>
					</g>
				</g>
				<g>
					<g>
						<path style="fill:#455A64;" d="M602.75,122.459c0.003,0.033-0.524,0.128-1.49,0.222c-0.962,0.079-2.383,0.191-4.119-0.108
							c-1.695-0.31-3.839-1.142-5.197-3.153c-0.667-1.009-0.931-2.23-1.365-3.357c-0.408-1.14-1.197-2.127-2.278-2.811
							c-2.188-1.387-4.762-1.557-7.013-1.831c-2.263-0.255-4.388-0.735-5.829-1.815c-1.451-1.033-2.195-2.373-2.386-3.339
							c-0.109-0.484-0.1-0.872-0.078-1.128c0.036-0.257,0.064-0.388,0.082-0.385c0.064,0.001-0.069,0.55,0.193,1.463
							c0.242,0.904,0.993,2.14,2.4,3.087c1.387,0.983,3.42,1.412,5.674,1.641c2.232,0.252,4.897,0.391,7.24,1.87
							c1.157,0.722,2.052,1.854,2.471,3.065c0.445,1.19,0.694,2.361,1.292,3.281c1.218,1.861,3.236,2.712,4.864,3.052
							c1.67,0.337,3.077,0.285,4.036,0.268C602.211,122.447,602.746,122.421,602.75,122.459z"/>
					</g>
				</g>
				<g>
					<g>
						<path style="fill:#455A64;" d="M600.268,114.315c0.005,0.025-0.404,0.153-1.172,0.172c-0.762,0.021-1.902-0.114-3.157-0.711
							c-0.625-0.297-1.267-0.723-1.858-1.292c-0.6-0.566-1.091-1.298-1.551-2.07c-0.902-1.521-1.77-3.397-3.64-4.172
							c-1.832-0.786-3.85-0.611-5.603-0.492c-1.77,0.174-3.429,0.226-4.782-0.04c-1.362-0.237-2.384-0.801-2.951-1.323
							c-0.286-0.258-0.481-0.489-0.588-0.66c-0.112-0.168-0.163-0.26-0.148-0.271c0.041-0.032,0.28,0.321,0.865,0.774
							c0.582,0.451,1.566,0.934,2.883,1.117c1.317,0.21,2.902,0.127,4.68-0.075c1.762-0.139,3.84-0.361,5.854,0.494
							c0.997,0.423,1.81,1.172,2.388,1.983c0.589,0.811,1.011,1.658,1.456,2.423c0.441,0.766,0.894,1.465,1.441,2.005
							c0.541,0.547,1.135,0.967,1.719,1.27c1.172,0.609,2.258,0.797,2.996,0.837C599.845,114.328,600.262,114.27,600.268,114.315z"
							/>
					</g>
				</g>
				<g>
					<g>
						<path style="fill:#455A64;" d="M606.73,170.762c-0.051-0.023,0.267-0.667,0.636-1.898c0.366-1.227,0.73-3.071,0.667-5.36
							c-0.078-2.273-0.625-5.023-2.133-7.636c-0.731-1.31-1.843-2.476-2.748-3.915c-0.45-0.718-0.837-1.523-1.007-2.414
							c-0.167-0.892-0.065-1.839,0.221-2.699c0.561-1.726,1.565-3.18,1.781-4.767c0.268-1.592-0.536-3.044-1.297-4.336
							c-0.385-0.658-0.771-1.308-1.071-1.988c-0.299-0.68-0.49-1.396-0.565-2.088c-0.152-1.39,0.01-2.667,0.113-3.813
							c0.289-2.284,0.077-4.161-0.474-5.314c-0.533-1.167-1.232-1.517-1.181-1.565c0.005-0.007,0.046,0.012,0.121,0.058
							c0.074,0.048,0.191,0.111,0.319,0.228c0.267,0.217,0.623,0.602,0.923,1.191c0.633,1.167,0.904,3.13,0.658,5.434
							c-0.081,1.151-0.216,2.412-0.052,3.729c0.133,1.329,0.818,2.583,1.621,3.884c0.389,0.658,0.8,1.345,1.088,2.125
							c0.296,0.773,0.431,1.657,0.301,2.525c-0.243,1.749-1.274,3.229-1.79,4.855c-0.269,0.812-0.355,1.646-0.208,2.448
							c0.151,0.802,0.503,1.549,0.931,2.239c0.858,1.382,1.975,2.572,2.73,3.944c1.535,2.715,2.052,5.544,2.085,7.867
							c0.018,2.339-0.411,4.206-0.841,5.43c-0.225,0.611-0.413,1.079-0.576,1.381C606.833,170.613,606.746,170.77,606.73,170.762z"
							/>
					</g>
				</g>
			</g>
		</g>
		<g>
			<g>
				<path style="fill:#263238;" d="M565.996,357.088c0,0-6.735-63.842-7.122-87.433c-0.387-23.59,10.606-46.866,10.606-46.866
					l43.083-1.822c0,0,8.516,23.936,8.668,33.99c0.296,19.539-5.191,38.833-4.559,54.333l1.44,47.798"/>
			</g>
			<g>
				<g>
					<path style="fill:#FAFAFA;" d="M619.555,278.603c0.009,0.016-0.235,0.2-0.703,0.533c-0.12,0.085-0.251,0.177-0.393,0.277
						c-0.135,0.114-0.266,0.258-0.417,0.403c-0.302,0.29-0.655,0.62-0.96,1.075c-1.392,1.704-2.406,4.748-3.371,8.545
						c-0.531,1.886-1.07,4.002-2.181,6.074c-0.298,0.505-0.565,1.041-0.957,1.512c-0.187,0.24-0.357,0.497-0.563,0.728l-0.663,0.663
						c-0.899,0.885-2.039,1.552-3.24,2.079c-2.412,1.057-5.134,1.559-7.621,2.806c-2.503,1.219-4.38,3.582-5.53,6.303
						c-1.213,2.709-1.949,5.554-2.961,8.21c-0.994,2.635-2.348,5.201-4.497,6.821c-2.132,1.679-4.768,2.063-7.05,2.21
						c-2.32,0.135-4.468,0.068-6.394,0.36c-1.919,0.266-3.62,0.874-4.823,1.82c-1.206,0.949-1.91,2.137-2.241,3.155
						c-0.343,1.03-0.281,1.899-0.167,2.452c0.111,0.562,0.269,0.83,0.234,0.845c0,0-0.188-0.252-0.336-0.82
						c-0.15-0.559-0.249-1.459,0.075-2.536c0.314-1.065,1.014-2.311,2.253-3.323c1.244-1.013,2.992-1.66,4.95-1.957
						c1.962-0.32,4.134-0.274,6.42-0.427c2.26-0.164,4.783-0.56,6.788-2.16c2.03-1.544,3.336-4.012,4.312-6.62
						c0.995-2.625,1.726-5.474,2.963-8.243c1.161-2.769,3.151-5.282,5.774-6.544c2.586-1.284,5.31-1.77,7.661-2.792
						c1.172-0.507,2.259-1.137,3.119-1.974l0.637-0.627c0.198-0.219,0.363-0.466,0.544-0.694c0.379-0.447,0.641-0.966,0.934-1.452
						c1.096-2,1.654-4.092,2.206-5.967c1.007-3.777,2.094-6.87,3.566-8.572c0.324-0.453,0.695-0.78,1.015-1.064
						c0.159-0.141,0.299-0.281,0.441-0.391c0.149-0.094,0.286-0.181,0.413-0.261C619.286,278.74,619.547,278.587,619.555,278.603z"
						/>
				</g>
			</g>
			<g>
				<g>
					<path style="fill:#FAFAFA;" d="M619.821,249.059c0.018-0.001,0.037,0.292,0.056,0.855c0.008,0.562-0.059,1.396-0.299,2.443
						c-0.5,2.082-2.021,4.94-4.867,7.526c-1.407,1.299-3.105,2.554-5.046,3.685c-1.93,1.146-4.06,2.236-6.242,3.469
						c-2.174,1.236-4.416,2.634-6.386,4.49c-1.996,1.834-3.491,4.245-4.837,6.797c-1.36,2.549-2.564,5.143-4.195,7.389
						c-0.809,1.122-1.723,2.147-2.734,3.024c-1.017,0.871-2.126,1.578-3.252,2.166c-2.26,1.173-4.562,1.898-6.695,2.566
						c-2.138,0.661-4.131,1.246-5.875,1.977c-1.746,0.72-3.258,1.535-4.481,2.4c-1.223,0.866-2.153,1.773-2.813,2.594
						c-1.332,1.65-1.612,2.845-1.688,2.805c-0.017-0.006,0.079-0.284,0.278-0.811c0.231-0.51,0.589-1.271,1.25-2.119
						c0.646-0.855,1.575-1.802,2.802-2.705c1.227-0.902,2.75-1.752,4.508-2.503c1.757-0.762,3.762-1.371,5.888-2.049
						c2.123-0.684,4.398-1.421,6.601-2.579c1.098-0.58,2.171-1.273,3.151-2.118c0.974-0.852,1.856-1.846,2.644-2.945
						c1.587-2.197,2.781-4.771,4.149-7.336c1.35-2.564,2.889-5.043,4.946-6.924c2.025-1.897,4.307-3.305,6.5-4.537
						c2.202-1.228,4.334-2.302,6.259-3.423c1.932-1.104,3.613-2.321,5.016-3.585c2.834-2.513,4.367-5.278,4.92-7.306
						C619.92,250.258,619.741,249.053,619.821,249.059z"/>
				</g>
			</g>
			<g>
				<g>
					<path style="fill:#FAFAFA;" d="M559.092,273.036c-0.008,0.003-0.038-0.062-0.087-0.194c-0.043-0.133-0.135-0.326-0.194-0.595
						c-0.122-0.534-0.198-1.378,0.1-2.397c0.556-2.036,2.768-4.57,6.333-5.839c1.773-0.609,3.785-0.977,5.882-1.526
						c2.072-0.558,4.33-1.34,6.016-3.073c0.837-0.855,1.545-1.873,2.134-2.992c0.573-1.129,1.047-2.341,1.493-3.592
						c0.897-2.494,1.649-5.204,3.171-7.668c1.512-2.483,3.974-4.208,6.523-5.072c2.542-0.934,5.106-1.348,7.485-1.897
						c2.386-0.519,4.616-1.191,6.509-2.216c1.866-1.06,3.352-2.471,4.405-3.967c2.157-2.999,2.722-6.071,2.799-8.101
						c0.047-2.063-0.281-3.186-0.213-3.196c0,0,0.399,1.104,0.415,3.2c-0.016,2.061-0.53,5.207-2.701,8.31
						c-1.061,1.547-2.573,3.018-4.494,4.131c-1.941,1.073-4.217,1.772-6.612,2.307c-2.391,0.564-4.939,0.989-7.414,1.907
						c-2.49,0.857-4.803,2.49-6.26,4.871c-1.469,2.373-2.224,5.053-3.131,7.563c-0.453,1.26-0.938,2.492-1.533,3.651
						c-0.611,1.151-1.354,2.211-2.237,3.103c-1.791,1.816-4.15,2.604-6.245,3.15c-2.126,0.537-4.127,0.881-5.875,1.457
						c-3.468,1.184-5.668,3.611-6.255,5.549c-0.316,0.972-0.277,1.787-0.191,2.317C559.026,272.753,559.115,273.028,559.092,273.036
						z"/>
				</g>
			</g>
			<g>
				<g>
					<path style="fill:#FAFAFA;" d="M616.116,327.019c0.018-0.002,0.041,0.213,0.069,0.628c0.024,0.413-0.009,1.032-0.184,1.805
						c-0.353,1.54-1.543,3.648-3.78,5.403c-1.101,0.888-2.434,1.703-3.965,2.355c-1.527,0.654-3.215,1.172-4.978,1.722
						c-1.762,0.55-3.611,1.125-5.408,1.975c-1.811,0.829-3.482,2.042-4.922,3.59c-1.459,1.528-2.718,3.197-4.114,4.671
						c-1.39,1.483-2.97,2.704-4.609,3.606c-3.291,1.818-6.703,2.441-9.51,2.473c-2.829,0.031-5.073-0.563-6.546-1.088
						c-0.743-0.259-1.295-0.518-1.661-0.712c-0.37-0.184-0.559-0.289-0.551-0.305c0.008-0.016,0.213,0.057,0.594,0.209
						c0.377,0.162,0.938,0.389,1.682,0.616c1.476,0.46,3.698,0.988,6.474,0.911c2.755-0.078,6.087-0.729,9.282-2.524
						c1.594-0.894,3.114-2.08,4.471-3.537c1.368-1.452,2.621-3.121,4.109-4.681c1.465-1.578,3.226-2.854,5.08-3.691
						c1.846-0.864,3.719-1.434,5.486-1.972c1.768-0.537,3.448-1.037,4.952-1.661c1.502-0.619,2.816-1.397,3.905-2.246
						c2.212-1.678,3.407-3.683,3.812-5.165C616.2,327.902,616.044,327.017,616.116,327.019z"/>
				</g>
			</g>
		</g>
		<g>
			<path style="fill:#B78876;" d="M611.205,194.464l-8.331,0.197c-0.547,2.806-1.884,4.726-1.884,4.726
				c-6.966-12.092-12.367-28.292-13.708-34.803c0.195-0.65,0.427-1.37,0.716-2.174c0.333-0.928,0.047-2.686-0.11-3.661
				c-0.234-1.45-0.639-3.4-0.761-4.303c-0.371-2.751-0.814-3.183-1.774-2.872c-1.305,0.423,0.535,7.726-0.535,7.885
				c-0.575,0.085-1.278-2.417-1.482-4.47c-0.204-2.053-1.132-8.368-1.811-8.789c-0.995-0.617-1.862,0.359-1.611,2.403
				c0.254,2.069,0.575,8.24-0.51,8.323c-1.069,0.082-1.966-10.387-1.966-10.387s0.169-2.278-1.087-2.223
				c-2.266,0.098-0.495,11.136-0.301,12.182c0.136,0.727-1.042,0.861-1.145,0.071c-0.107-0.813-0.653-10.47-2.96-10.393
				c-1.771,0.06,1.371,9.096,0.377,11.191c-0.994,2.094-1.685-7.114-3.375-6.987c-0.629,0.048-1.094,0.171,0.062,5.382
				c0.621,2.801,2.447,7.95,4.042,12.214c2.679,14.45,14.437,60.676,32.87,52.214c10.315-4.735,14.499-25.72,14.499-25.72
				L611.205,194.464z"/>
			<g>
				<g>
					<path style="fill:#A36957;" d="M575.657,157.204c0,0,0.084,0.015,0.24-0.033c0.141-0.043,0.42-0.219,0.376-0.578
						c-0.024-0.62-0.121-1.525-0.265-2.694c-0.107-1.177-0.459-2.589-0.46-4.26c-0.014-0.837,0.008-1.737,0.056-2.691
						c0.031-0.477,0.039-0.972,0.145-1.44c0.078-0.453,0.382-0.971,0.731-0.909l0.038,0.007l0.017-0.001
						c0.356-0.016,0.634,0.261,0.748,0.685c0.125,0.405,0.156,0.883,0.131,1.339l-0.001,0.019l0.001,0.013
						c0.234,2.558,0.486,5.359,1.069,8.349c0.081,0.374,0.164,0.75,0.28,1.129c0.058,0.189,0.125,0.38,0.208,0.573
						c0.054,0.099,0.088,0.193,0.17,0.296c0.071,0.087,0.162,0.239,0.418,0.262c0.415-0.031,0.535-0.345,0.629-0.525
						c0.09-0.207,0.146-0.412,0.187-0.615c0.086-0.407,0.129-0.813,0.161-1.221c0.11-1.631,0.053-3.295-0.067-5.002
						c-0.039-0.863-0.251-1.723-0.104-2.505c0.068-0.385,0.229-0.773,0.492-0.933c0.128-0.078,0.272-0.094,0.43-0.054
						c0.079,0.023,0.159,0.055,0.238,0.103c0.066,0.063,0.051,0.035,0.11,0.147c0.335,0.716,0.506,1.648,0.694,2.514
						c0.177,0.885,0.331,1.787,0.472,2.699c0.141,0.912,0.27,1.835,0.379,2.765c0.089,0.929,0.224,1.905,0.461,2.844
						c0.12,0.473,0.253,0.945,0.451,1.413c0.102,0.235,0.207,0.467,0.412,0.707c0.074,0.102,0.307,0.293,0.599,0.218
						c0.282-0.094,0.362-0.318,0.408-0.449c0.162-0.575,0.114-1.053,0.106-1.556c-0.021-0.496-0.063-0.987-0.104-1.477
						c-0.071-0.842-0.152-1.675-0.18-2.496c-0.013-0.409-0.014-0.818,0.03-1.203c0.025-0.188,0.057-0.382,0.122-0.521
						c0.03-0.071,0.068-0.123,0.096-0.149c0.016-0.016,0.026-0.009,0.039-0.025l0.13-0.037c0.663-0.274,0.884,0.649,1.06,1.393
						c0.154,0.776,0.251,1.577,0.407,2.366c0.263,1.575,0.6,3.14,0.775,4.645c0.072,0.745,0.126,1.52-0.088,2.152
						c-0.237,0.723-0.471,1.438-0.702,2.145l-0.021,0.064l0.015,0.067c1.219,5.377,2.907,10.188,4.474,14.459
						c1.583,4.267,3.166,7.955,4.563,10.97c1.393,3.019,2.643,5.344,3.506,6.931c0.438,0.752,0.784,1.346,1.041,1.788
						c0.241,0.403,0.373,0.608,0.386,0.601c0.013-0.008-0.092-0.228-0.307-0.645c-0.238-0.451-0.558-1.059-0.964-1.827
						c-0.813-1.61-2.013-3.953-3.36-6.984c-1.352-3.028-2.892-6.722-4.439-10.99c-1.53-4.266-3.19-9.09-4.375-14.411l-0.006,0.131
						c0.231-0.698,0.465-1.403,0.701-2.116c0.269-0.816,0.19-1.613,0.123-2.393c-0.179-1.564-0.506-3.084-0.767-4.666
						c-0.154-0.782-0.249-1.585-0.41-2.405c-0.095-0.409-0.183-0.821-0.408-1.238c-0.108-0.202-0.276-0.432-0.552-0.556
						c-0.279-0.121-0.565-0.087-0.789-0.032l-0.168,0.048c-0.075,0.034-0.169,0.074-0.227,0.129
						c-0.128,0.111-0.201,0.238-0.253,0.356c-0.105,0.24-0.135,0.461-0.166,0.683c-0.05,0.439-0.047,0.866-0.035,1.29
						c0.029,0.848,0.111,1.687,0.182,2.526c0.041,0.488,0.082,0.974,0.103,1.453c0.017,0.467,0.034,0.983-0.074,1.344
						c-0.025,0.105-0.074,0.085-0.017,0.136l0.002,0.005c-0.005-0.034,0.008,0.051,0.006,0.037l-0.002-0.01
						c-0.002-0.013,0-0.025,0.003-0.035c0.005-0.009,0.027-0.044,0.014-0.046c-0.007-0.003-0.031-0.016-0.06-0.055
						c-0.11-0.127-0.22-0.335-0.306-0.542c-0.178-0.419-0.309-0.874-0.424-1.327c-0.23-0.917-0.359-1.827-0.451-2.772
						c-0.112-0.941-0.243-1.868-0.387-2.786c-0.144-0.918-0.301-1.826-0.483-2.722c-0.206-0.902-0.339-1.769-0.76-2.67
						c-0.026-0.091-0.204-0.293-0.314-0.352c-0.113-0.067-0.238-0.119-0.372-0.157c-0.269-0.074-0.598-0.04-0.846,0.117
						c-0.496,0.328-0.649,0.849-0.739,1.301c-0.081,0.466-0.069,0.926-0.017,1.37c0.05,0.427,0.091,0.845,0.125,1.268
						c0.126,1.684,0.189,3.341,0.091,4.925c-0.028,0.395-0.069,0.786-0.145,1.155c-0.036,0.185-0.087,0.364-0.152,0.518
						c-0.032,0.076-0.072,0.147-0.109,0.187c-0.036,0.083-0.068-0.019-0.065,0.116c0.051-0.103,0.002-0.046-0.037-0.132
						c-0.043-0.047-0.079-0.137-0.119-0.207c-0.071-0.163-0.133-0.335-0.189-0.513c-0.111-0.355-0.196-0.723-0.276-1.086
						c-0.594-2.937-0.873-5.745-1.13-8.285l0,0.032c0.022-0.514-0.012-1.005-0.163-1.487c-0.076-0.237-0.188-0.479-0.391-0.666
						c-0.199-0.193-0.485-0.279-0.741-0.271l0.055,0.006c-0.402-0.071-0.695,0.172-0.862,0.413
						c-0.172,0.248-0.248,0.517-0.307,0.777c-0.11,0.525-0.108,1.024-0.134,1.503c-0.035,0.962-0.043,1.867-0.015,2.713
						c0.032,1.706,0.416,3.118,0.552,4.281c0.174,1.162,0.304,2.064,0.36,2.672c0.063,0.289-0.17,0.475-0.292,0.524
						C575.737,157.183,575.655,157.192,575.657,157.204z"/>
				</g>
			</g>
		</g>
		<path style="fill:#B78876;" d="M510.532,208.232c0,0-2.767-0.132-5.793,0.664c-5.164,1.359-14.079,6.761-14.448,13.436h6.475
			c0,0-3.626,7.719-2.56,7.004c2.764-1.854,8.268-7.447,8.268-7.447L510.532,208.232z"/>
		<g>
			<g>
				<g>
					<path style="fill:#263238;" d="M598.858,92.044c-0.143,0.013-0.731-5.341-1.313-11.956c-0.582-6.618-0.937-11.991-0.794-12.003
						c0.143-0.013,0.731,5.34,1.313,11.958C598.646,86.657,599.001,92.031,598.858,92.044z"/>
				</g>
			</g>
			<g>
				<g>
					<path style="fill:#263238;" d="M627.266,68.411c0.117,0.083-4.258,6.433-9.77,14.18c-5.514,7.75-10.078,13.963-10.196,13.88
						c-0.117-0.083,4.257-6.432,9.771-14.182C622.583,74.542,627.148,68.328,627.266,68.411z"/>
				</g>
			</g>
			<g>
				<g>
					<path style="fill:#263238;" d="M639.068,97.188c0.029,0.141-5.077,1.309-11.402,2.609c-6.328,1.3-11.479,2.24-11.508,2.099
						c-0.029-0.141,5.076-1.309,11.403-2.609C633.887,97.988,639.039,97.048,639.068,97.188z"/>
				</g>
			</g>
		</g>
	</g>
</g>
<g id="Folder">
	<g>
		<g>
			<path style="fill:#2AA2D6;" d="M298.958,234.544l-35.361,181.799l-4.629,23.799l236.063-1.165
				c10.594-0.052,19.983-9.459,23.392-23.435l41.859-171.637c2.587-10.61-3.09-21.645-11.133-21.636l-238.923,0.251
				C304.951,222.527,300.339,227.449,298.958,234.544z"/>
		</g>
		<g style="opacity:0.5;">
			<path d="M298.958,234.544l-35.361,181.799l-4.629,23.799l236.063-1.165c10.594-0.052,19.983-9.459,23.392-23.435l41.859-171.637
				c2.587-10.61-3.09-21.645-11.133-21.636l-238.923,0.251C304.951,222.527,300.339,227.449,298.958,234.544z"/>
		</g>
		<g>
			<path style="fill:#2AA2D6;" d="M472.387,404.026l-24.994-201.408c-1.024-8.253-7.598-14.409-15.36-14.383l-54.806,0.179
				c-4.056,0.013-7.945,1.738-10.827,4.801l-26.025,27.665l-152.426,0.795c-9.315,0.049-16.471,8.862-15.236,18.765l23.206,186.153
				c1.027,8.241,7.589,14.389,15.34,14.373l265.647-0.525c29.587,0.613,32.411-8.125,32.411-8.125
				C475.41,439.831,472.39,404.049,472.387,404.026z"/>
		</g>
		<g style="opacity:0.5;">
			<polygon style="fill:#FFFFFF;" points="357.842,363.717 348.883,373.339 279.88,311.264 288.84,301.642 			"/>
			<polygon style="fill:#FFFFFF;" points="345.128,299.509 355.03,308.416 292.595,375.473 282.693,366.565 			"/>
		</g>
	</g>
</g>
<g id="Speech_Bubble">
	<g>
		<g>
			<g>
				<g>
					<path style="fill:#2AA2D6;" d="M510.32,103.785c-0.639-0.274-1.098-0.895-1.131-1.636l-0.399-9.284
						c-0.026-0.584,0.224-1.146,0.674-1.518c0.45-0.373,1.049-0.512,1.618-0.378c1.492,0.352,3.138,0.027,4.515-0.892
						c1.268-0.846,2.119-2.092,2.334-3.419c0.216-1.322-0.193-2.785-1.122-4.015c-0.995-1.317-2.465-2.204-3.941-2.373
						c-3.011-0.347-6.262,1.96-7.099,5.038c-0.27,0.994-1.295,1.582-2.289,1.311c-1.011-0.278-1.582-1.296-1.312-2.29
						c1.314-4.838,6.306-8.322,11.128-7.767c2.5,0.288,4.869,1.684,6.489,3.83c1.542,2.04,2.208,4.542,1.829,6.866
						c-0.382,2.345-1.82,4.503-3.946,5.922c-1.536,1.025-3.298,1.591-5.06,1.652l0.31,7.156c0.044,1.03-0.755,1.9-1.785,1.944
						C510.845,103.945,510.569,103.891,510.32,103.785z"/>
				</g>
			</g>
			<g>
				<g>
					<path style="fill:#2AA2D6;" d="M513.055,107.577c0.058,0.841-0.577,1.57-1.418,1.627c-0.841,0.058-1.57-0.577-1.628-1.418
						c-0.058-0.841,0.577-1.57,1.418-1.628S512.997,106.736,513.055,107.577z"/>
				</g>
			</g>
		</g>
		<g>
			<g>
				<g>
					<path style="fill:#263238;" d="M478.186,90.694c0.012,0,0.043-0.206,0.09-0.609c0.047-0.435,0.113-1.027,0.196-1.788
						c0.045-0.791,0.247-1.747,0.484-2.874c0.132-0.56,0.2-1.183,0.405-1.813c0.195-0.634,0.402-1.307,0.62-2.019
						c0.968-2.808,2.461-6.176,4.973-9.526c2.494-3.343,6.001-6.646,10.502-9.148c2.217-1.322,4.752-2.243,7.41-3.056
						c2.699-0.639,5.56-1.187,8.549-1.116c1.495-0.08,3.002,0.139,4.538,0.268c0.767,0.073,1.522,0.278,2.293,0.412
						c0.771,0.142,1.546,0.293,2.301,0.555c3.087,0.792,6.086,2.248,8.944,4.053c5.737,3.609,10.568,9.481,13.218,16.599
						c1.329,3.561,1.965,7.465,1.96,11.408c0.079,3.951-0.686,7.964-2.092,11.742l-0.451,1.142l-0.059,0.151l0.061,0.141
						c2.508,5.777,4.968,11.443,7.351,16.933l0.421-0.478c-5.164-1.984-10.172-3.908-14.976-5.754l-0.185-0.071l-0.145,0.141
						c-4.155,4.026-9.118,6.747-14.142,8.165c-5.04,1.421-10.116,1.494-14.733,0.673c-4.627-0.819-8.793-2.589-12.267-4.864
						c-3.484-2.275-6.278-5.041-8.432-7.852c-2.138-2.842-3.546-5.756-4.61-8.359c-0.936-2.66-1.51-5.021-1.788-6.975
						c-0.118-0.976-0.223-1.844-0.314-2.601c-0.02-0.748-0.036-1.384-0.05-1.911c-0.016-0.491-0.029-0.879-0.039-1.171
						C478.207,90.829,478.196,90.694,478.186,90.694c-0.009,0-0.017,0.133-0.024,0.397c-0.004,0.293-0.009,0.68-0.015,1.174
						c-0.001,0.529-0.003,1.17-0.003,1.922c0.077,0.763,0.165,1.638,0.265,2.622c0.246,1.973,0.792,4.363,1.709,7.062
						c1.044,2.641,2.443,5.604,4.585,8.5c2.158,2.865,4.971,5.689,8.492,8.019c3.511,2.33,7.732,4.151,12.429,5.005
						c4.686,0.854,9.847,0.801,14.98-0.629c5.118-1.426,10.182-4.185,14.426-8.281l-0.331,0.07
						c4.802,1.853,9.805,3.785,14.968,5.777l0.755,0.291l-0.333-0.769c-2.381-5.492-4.837-11.159-7.342-16.937l0.002,0.291
						l0.461-1.167c1.438-3.861,2.217-7.966,2.136-12.004c0.003-4.03-0.653-8.021-2.015-11.658
						c-2.715-7.271-7.658-13.246-13.51-16.908c-2.915-1.832-5.974-3.302-9.117-4.1c-0.769-0.263-1.558-0.414-2.342-0.556
						c-0.784-0.134-1.553-0.339-2.333-0.411c-1.561-0.125-3.094-0.34-4.612-0.253c-3.038-0.058-5.944,0.51-8.68,1.175
						c-2.696,0.839-5.263,1.79-7.505,3.144c-4.551,2.567-8.081,5.942-10.576,9.349c-2.514,3.413-3.987,6.836-4.924,9.682
						c-0.21,0.721-0.409,1.404-0.595,2.045c-0.197,0.638-0.256,1.267-0.378,1.833c-0.217,1.14-0.399,2.104-0.422,2.901
						c-0.055,0.765-0.098,1.363-0.13,1.8C478.182,90.486,478.175,90.693,478.186,90.694z"/>
				</g>
			</g>
		</g>
	</g>
</g>
</svg>
