<?xml version="1.0" encoding="utf-8"?>
<!-- Generator: Adobe Illustrator 27.5.0, SVG Export Plug-In . SVG Version: 6.00 Build 0)  -->
<svg version="1.1" xmlns="http://www.w3.org/2000/svg" xmlns:xlink="http://www.w3.org/1999/xlink" x="0px" y="0px"
	 viewBox="0 0 500 500" style="enable-background:new 0 0 500 500;" xml:space="preserve">
<g id="Background_Complete">

	<g>
		<path style="fill:#F5F5F5;" d="M395,294.667c-21-45.667-96.157-30.429-140.245-82.048C210.667,161,170.027,87.677,123.333,102.911
			C76.64,118.145,64.667,83.667,49.667,91c-15,7.334,1.473,22.776,24,25.567c33.088,4.1,64.571,18.123,71,50.653
			c7.335,37.114-29.885,29.388-44,18.78c-16.333-12.274-33.333,18.667-0.333,24s91.225-11.276,129.57,25.4
			c24.208,23.155,48.653,29.231,80.653,39.526c32,10.295-37.111,52.768-51.333,76.532c-14.222,23.764-2.556,30.94-2.556,30.94h79.25
			C364.917,377.732,416,340.333,395,294.667z"/>
		<path style="fill:#F5F5F5;" d="M98.512,168.325c-8.514-3.079-19.922-18.069-6.791-19.535
			C104.852,147.324,114.278,174.025,98.512,168.325z"/>
		<path style="fill:#F5F5F5;" d="M379.441,232.87c6.1-8.202,33.637-18.164,35.302-4.925
			C416.409,241.185,368.145,248.059,379.441,232.87z"/>
		<path style="fill:#F5F5F5;" d="M156.877,285.225c-6.099,3.442-43.843-26.156-29.797-37.122
			C141.126,237.136,160.479,283.191,156.877,285.225z"/>
		<path style="fill:#F5F5F5;" d="M334.382,99.991c-4.293-7.469-2.752-32.101,8.042-28.944
			C353.218,74.203,342.332,113.821,334.382,99.991z"/>
		<path style="fill:#F5F5F5;" d="M279.467,214.579c-30.69-42.249,11.934-78.771,62.064-92.023
			c50.129-13.252,37.184-29.369,27.917-41.159c-9.268-11.79,6.017-26.007,25.322-14.124c19.305,11.884,14.684,42.998-14.175,63.278
			c-28.859,20.28-19.351,30.784-3.695,64.81C394.778,234.215,314.589,262.929,279.467,214.579z"/>
		<path style="fill:#F5F5F5;" d="M196.817,301.167c-19.447,16.333-48.553,1.158-77.612-17.5
			c-32.754-21.03-43.093-46.269-58.897-39.602C32.041,255.988,142.739,306.333,117.13,317s-28.793-16.833-41.112-29.667
			c-12.319-12.833-35.153-0.667-3.482,33.588c31.671,34.255,22.537,61.477,22.537,61.477h145.889
			C246.731,369.408,216.264,284.833,196.817,301.167z"/>
	</g>
</g>
<g id="Shadow_1_">
	<ellipse id="_x3C_Path_x3E__73_" style="fill:#F5F5F5;" cx="250" cy="416.238" rx="193.889" ry="11.323"/>
</g>
<g id="Splash_1">
	<g>
		<path style="opacity:0.1;fill:#407BFF;" d="M137.303,337.208c0.514-2.55,2.344-3.042,3.8-3.064
			c8.562-0.129,16.569,5.915,24.038,12.405c1.647,1.431,3.441,2.917,5.293,1.412c0.481-0.391,0.939-0.977,1.196-1.818
			c0.335-1.097,0.268-2.476-0.036-3.565c-0.304-1.089-0.816-1.93-1.358-2.644c-3.223-4.249-7.16-6.292-10.344-10.681
			c-1.671-2.304-3.161-5.037-4.414-8.098c-1.035-2.528-2.956-6.595-2.201-10.038c0.896-4.089,3.947-3.732,5.794-3.179
			c5.848,1.751,11.305,5.922,16.272,11.113c5.285,5.523,10.078,12.171,14.843,18.784c1.806,2.508,3.706,5.089,6.037,5.96
			c2.33,0.871,5.21-0.565,6.178-4.188c0.953-3.569-0.172-7.776-0.406-11.38c-0.278-4.272-0.165-8.703,0.611-12.858
			c0.449-2.404,1.143-4.752,2.234-6.355c2.576-3.784,6.395-2.457,8.902,0.406c1.766,2.016,3.183,4.901,4.357,8.038
			c2.718,7.264,4.311,16.079,4.947,24.858c0.379,5.242,1.185,10.714,3.345,14.79c3.488,6.579,10.02,6.054,15.053,2.606
			c8.788-6.019,15.564-19.563,17.372-34.719c0.59-4.946,0.743-10.278,2.548-14.421c1.562-3.585,5.6-6,7.565-2.139
			c0.83,1.632,0.939,3.996,0.646,6.101c-0.293,2.105-0.936,4.041-1.494,6.009c-0.962,3.395-2.021,9.772,0.699,11.759
			c0.829,0.606,1.793,0.49,2.707,0.301c8.844-1.837,17.067-10.163,22.468-21.773c1.895-4.073,3.34-8.711,4.458-13.607
			c0.653-2.858,0.917-5.934,1.634-8.773c0.615-2.435,1.513-4.714,2.745-6.189c3.44-4.117,11.382-2.183,11.834,6.652
			c0.261,5.105-1.095,10.11-1.59,15.104c-0.31,3.128,1.612,3.102,3.053,2.955c6.902-0.705,13.015-7.664,18.414-14.898
			c6.43-8.616,13.547-19.797,22.327-20.12c2.035-0.075,5.334,0.184,6.53,3.278c0.649,1.678,0.501,3.913,0.046,5.797
			c-1.781,7.384-7.03,11.198-10.978,14.844c-10.66,9.844-20.601,21.813-29.522,35.543c-1.276,1.964-2.58,5.292-1.371,7.26
			c0.56,0.911,1.444,1.018,2.247,0.957c4.127-0.316,7.956-3.602,11.773-6.323c3.718-2.65,8.044-5.095,12.022-3.042
			c2.095,1.081,3.959,3.438,4.903,6.657c0.669,2.282,0.854,5.003,0.335,7.436c-1.448,6.788-7.725,9.845-11.176,13.194
			c-4.542,4.407-8.903,9.341-12.957,14.889c-3.601,4.928-6.955,10.329-10.598,15.174c-13.029,17.327-30.969,19.893-47.005,21.904
			c-17.409,2.182-34.855,1.024-52.163-1.285c-12.59-1.68-24.97-5.26-37.295-9.517c-4.216-1.527-8.411-3.199-12.55-5.174
			c-4.452-2.124-11.051-3.435-12.707-11.778c-0.357-1.8,0.064-3.26,1.255-3.936c3.688-2.093,8.949,0.709,12.412,2.56
			c4.788,2.558,9.335,6.209,14.249,8.188c1.666,0.671,3.439,0.985,5.12,0.261c0.706-0.305,1.41-0.818,1.893-1.721
			c0.482-0.903,0.692-2.26,0.361-3.296c-0.221-0.693-0.639-1.148-1.044-1.567c-9.421-9.742-20.29-16.598-31.112-21.226
			c-3.758-1.605-7.581-2.928-11.196-5.208c-2.677-1.689-5.257-3.937-7.403-7.041C139.145,346.248,136.449,341.499,137.303,337.208z"
			/>
		<path style="opacity:0.1;fill:#407BFF;" d="M328.574,263.702c-3.085,3.207-8.429,0.357-7.529-4.001
			c3.454-16.715,10.933-28.925,19.873-22.607C347.583,241.803,337.141,254.795,328.574,263.702z"/>
		<path style="opacity:0.1;fill:#407BFF;" d="M163.79,253.913c-9.228-7.166-15.681-16.977-9.099-19.515
			C160.912,232,163.79,253.913,163.79,253.913z"/>
	</g>
</g>
<g id="Bottle_Of_Water">
	<g>
		<path style="opacity:0.3;fill:#407BFF;" d="M304.371,271.519c5.338-2.959,9.147-8.441,9.685-14.979l6.767-82.351
			c0.703-8.559-2.235-17.017-8.092-23.297l-20.826-22.329c-2.324-2.491-3.489-5.847-3.21-9.242l0.991-12.056l-53.902-4.429
			l-0.991,12.056c-0.279,3.395-1.977,6.516-4.676,8.594l-24.192,18.63c-6.804,5.24-11.083,13.105-11.786,21.664l-6.767,82.351
			c-0.537,6.539,2.326,12.569,7.11,16.359c-5.338,2.959-9.148,8.441-9.685,14.979l-8.626,104.979
			c-0.854,10.397,6.882,19.518,17.279,20.372l89.033,7.316c10.397,0.854,19.518-6.882,20.372-17.279l8.626-104.979
			C312.017,281.34,309.154,275.31,304.371,271.519z"/>
		
			<rect x="257.685" y="82.659" transform="matrix(0.0819 -0.9966 0.9966 0.0819 131.5339 362.1875)" style="opacity:0.3;fill:#407BFF;" width="9.334" height="54.084"/>
		<path style="opacity:0.3;fill:#FFFFFF;" d="M312.226,153.02L291.4,130.69c0,0-13.429,0.585-2.965,17.053
			C297.285,161.671,312.776,159.504,312.226,153.02z"/>
		<path style="opacity:0.2;fill:#407BFF;" d="M176.17,382.448c-0.854,10.397,6.881,19.518,17.279,20.373l89.033,7.316
			c10.397,0.854,19.518-6.882,20.372-17.279L176.17,382.448z"/>
		<path style="opacity:0.3;fill:#407BFF;" d="M308.342,154.984c4.694,5.033,7.064,11.854,6.5,18.714l-6.767,82.351
			c-0.353,4.302-2.826,8.123-6.613,10.223l-7.868,4.362l7.05,5.588c3.394,2.69,5.209,6.864,4.856,11.165l-8.626,104.979
			c-0.582,7.083-6.818,12.372-13.901,11.79l-89.033-7.316c-7.083-0.582-12.372-6.818-11.79-13.901l8.626-104.979
			c0.354-4.302,2.826-8.123,6.613-10.223l7.868-4.362l-7.05-5.588c-3.394-2.69-5.209-6.864-4.856-11.166l6.767-82.351
			c0.564-6.86,4.014-13.202,9.467-17.402c7.996-5.171,29.012,7.704,53.596,9.725C287.765,158.613,303.195,152.362,308.342,154.984z"
			/>
		<path style="opacity:0.2;fill:#407BFF;" d="M263.176,156.597c-24.577-2.02-45.592-14.904-53.593-9.732
			c13.966,7.7,29.96,12.465,53.211,14.376c23.262,1.911,45.546-6.261,45.546-6.261C303.197,152.361,287.763,158.618,263.176,156.597
			z"/>
		<path style="opacity:0.2;fill:#407BFF;" d="M187.371,246.13c-0.537,6.539,2.326,12.569,7.11,16.359l109.89,9.03
			c5.338-2.959,9.147-8.441,9.685-14.979L187.371,246.13z"/>
		<path style="fill:#407BFF;" d="M297.399,105.135l-0.996-0.082l0.651-7.933c0.145-1.755-0.403-3.461-1.542-4.803
			c-1.14-1.343-2.733-2.162-4.487-2.306l-8.614-0.708l0.082-0.997l8.614,0.708c2.021,0.166,3.855,1.109,5.167,2.655
			c1.313,1.546,1.943,3.511,1.776,5.532L297.399,105.135z"/>
		<path style="fill:#407BFF;" d="M294.681,115.1l-0.695-0.719c1.157-1.118,1.865-2.606,1.995-4.187l0.996,0.081
			C296.827,112.099,296.012,113.813,294.681,115.1z"/>
		<path style="fill:#407BFF;" d="M290.821,92.503l-53.749-4.417c-2.252-0.185-4.227,1.49-4.412,3.742l-1.074,13.075
			c-0.185,2.252,1.49,4.227,3.742,4.412l53.748,4.417c2.252,0.185,4.227-1.49,4.412-3.742l1.074-13.075
			C294.748,94.663,293.072,92.688,290.821,92.503z"/>
		<g>
			<path style="opacity:0.2;fill:#FFFFFF;" d="M238.064,107.313c-0.014,0-0.028,0-0.042-0.002c-0.275-0.023-0.479-0.264-0.457-0.539
				l1.299-15.813c0.023-0.275,0.267-0.482,0.539-0.457c0.275,0.023,0.48,0.264,0.457,0.539l-1.299,15.813
				C238.539,107.116,238.32,107.313,238.064,107.313z"/>
			<path style="opacity:0.2;fill:#FFFFFF;" d="M247.809,108.114c-0.014,0-0.028,0-0.042-0.002c-0.275-0.023-0.48-0.264-0.457-0.539
				l1.299-15.813c0.023-0.275,0.279-0.481,0.539-0.457c0.275,0.023,0.479,0.264,0.457,0.539l-1.299,15.813
				C248.284,107.916,248.065,108.114,247.809,108.114z"/>
			<path style="opacity:0.2;fill:#FFFFFF;" d="M257.553,108.915c-0.015,0-0.028-0.001-0.042-0.002
				c-0.275-0.023-0.48-0.264-0.457-0.539l1.3-15.813c0.023-0.276,0.291-0.48,0.539-0.457c0.275,0.023,0.479,0.264,0.457,0.539
				l-1.3,15.813C258.028,108.717,257.81,108.915,257.553,108.915z"/>
			<path style="opacity:0.2;fill:#FFFFFF;" d="M267.298,109.716c-0.015,0-0.028,0-0.042-0.002c-0.275-0.023-0.479-0.264-0.457-0.539
				l1.3-15.813c0.023-0.276,0.283-0.479,0.539-0.457c0.275,0.022,0.479,0.264,0.457,0.539l-1.3,15.813
				C267.773,109.518,267.555,109.716,267.298,109.716z"/>
			<path style="opacity:0.2;fill:#FFFFFF;" d="M277.043,110.517c-0.015,0-0.028-0.001-0.042-0.002
				c-0.275-0.023-0.479-0.264-0.457-0.539l1.3-15.813c0.023-0.276,0.294-0.479,0.539-0.457c0.275,0.023,0.479,0.264,0.457,0.539
				l-1.3,15.813C277.519,110.319,277.3,110.517,277.043,110.517z"/>
			<path style="opacity:0.2;fill:#FFFFFF;" d="M286.788,111.317c-0.014,0-0.028,0-0.042-0.002c-0.275-0.023-0.479-0.264-0.457-0.539
				l1.299-15.813c0.023-0.275,0.273-0.481,0.539-0.457c0.275,0.023,0.479,0.264,0.457,0.539l-1.299,15.813
				C287.264,111.119,287.045,111.317,286.788,111.317z"/>
		</g>
		<path style="opacity:0.2;fill:#407BFF;" d="M204.042,218.626c-1.519-8.41-13.769-7.818-14.469,0.7l-2.202,26.804
			c-0.537,6.539,2.326,12.569,7.11,16.359c-5.338,2.959-9.148,8.441-9.685,14.979l-8.626,104.979
			c-0.854,10.397,6.882,19.518,17.279,20.373l22.998,1.89c10.862,0.893,19.618-8.754,17.682-19.479L204.042,218.626z"/>
		<path style="opacity:0.3;fill:#407BFF;" d="M292.495,356.109c-0.442,5.382-5.164,9.386-10.546,8.944
			c-5.382-0.442-9.386-5.164-8.944-10.546c0.442-5.382,5.164-9.386,10.546-8.944C288.933,346.005,292.938,350.727,292.495,356.109z"
			/>
		<path style="opacity:0.3;fill:#407BFF;" d="M261.406,318.24c-0.313,3.806-3.651,6.637-7.457,6.324
			c-3.806-0.313-6.637-3.651-6.325-7.457c0.313-3.806,3.651-6.637,7.457-6.324C258.887,311.095,261.719,314.434,261.406,318.24z"/>
		<path style="opacity:0.3;fill:#407BFF;" d="M232.483,233.977c-3.82,0.184-7.067-2.763-7.251-6.583s2.763-7.067,6.583-7.251
			c3.82-0.185,7.067,2.763,7.251,6.583C239.25,230.546,236.303,233.792,232.483,233.977z"/>
		<path style="opacity:0.3;fill:#407BFF;" d="M251.348,192.587c-2.701,0.13-4.997-1.954-5.127-4.655
			c-0.13-2.701,1.954-4.997,4.655-5.127c2.701-0.13,4.997,1.954,5.127,4.655C256.134,190.161,254.049,192.456,251.348,192.587z"/>
		<path style="opacity:0.3;fill:#407BFF;" d="M281.707,288.331c-0.13,1.576-1.512,2.749-3.089,2.62
			c-1.576-0.129-2.749-1.512-2.62-3.089c0.13-1.576,1.512-2.749,3.089-2.62C280.664,285.372,281.836,286.754,281.707,288.331z"/>
		<path style="opacity:0.7;fill:#FFFFFF;" d="M229.907,366.569c-0.159,0-0.318-0.007-0.479-0.02
			c-1.543-0.127-2.943-0.847-3.944-2.027c-1.001-1.18-1.482-2.679-1.355-4.222l0.374,0.031l-0.374-0.031
			c0.262-3.184,3.082-5.56,6.248-5.299c1.543,0.127,2.943,0.847,3.944,2.027c1.001,1.18,1.482,2.679,1.355,4.222
			C235.428,364.273,232.888,366.569,229.907,366.569z M229.899,355.733c-2.596,0-4.807,1.999-5.022,4.63
			c-0.11,1.342,0.309,2.648,1.18,3.675c0.871,1.027,2.091,1.654,3.433,1.764c2.785,0.226,5.212-1.842,5.439-4.613
			c0.11-1.343-0.309-2.648-1.18-3.675c-0.871-1.027-2.091-1.654-3.433-1.764C230.176,355.738,230.037,355.733,229.899,355.733z"/>
		<path style="opacity:0.7;fill:#FFFFFF;" d="M291.762,249.549c-0.117,0-0.234-0.005-0.352-0.014
			c-2.312-0.19-4.038-2.225-3.849-4.536v0c0.191-2.311,2.222-4.037,4.537-3.848c1.12,0.092,2.137,0.615,2.863,1.471
			c0.727,0.857,1.076,1.946,0.984,3.065c-0.092,1.12-0.614,2.137-1.471,2.863C293.708,249.201,292.756,249.549,291.762,249.549z
			 M288.31,245.059c-0.156,1.899,1.263,3.572,3.161,3.728c0.923,0.076,1.816-0.211,2.52-0.809c0.704-0.597,1.133-1.433,1.208-2.353
			c0.076-0.92-0.211-1.814-0.808-2.519c-0.598-0.704-1.433-1.133-2.353-1.209C290.128,241.742,288.466,243.16,288.31,245.059
			L288.31,245.059z"/>
		<path style="opacity:0.7;fill:#FFFFFF;" d="M227.148,160.89c-0.054,0-0.108-0.002-0.162-0.007
			c-1.078-0.089-1.884-1.038-1.796-2.116c0,0,0,0,0,0c0.09-1.078,1.053-1.882,2.116-1.795c1.078,0.089,1.884,1.038,1.796,2.116
			C229.018,160.112,228.157,160.89,227.148,160.89z M225.939,158.828c-0.055,0.666,0.443,1.253,1.108,1.307
			c0.674,0.057,1.253-0.443,1.308-1.109c0.055-0.666-0.443-1.252-1.108-1.307C226.571,157.665,225.994,158.162,225.939,158.828
			L225.939,158.828z"/>
		<path style="opacity:0.7;fill:#FFFFFF;" d="M271.368,212.678c-0.14,0-0.279-0.006-0.419-0.017c-2.76-0.227-4.82-2.656-4.594-5.415
			l0,0c0.11-1.337,0.733-2.55,1.757-3.418c1.022-0.868,2.328-1.284,3.658-1.175c1.337,0.11,2.551,0.734,3.418,1.756
			c0.868,1.023,1.285,2.322,1.175,3.659c-0.11,1.336-0.733,2.55-1.756,3.417C273.691,212.262,272.555,212.678,271.368,212.678z
			 M271.353,203.386c-1.01,0-1.977,0.354-2.755,1.014c-0.87,0.738-1.401,1.77-1.494,2.907l0,0c-0.193,2.347,1.56,4.413,3.906,4.606
			c1.142,0.093,2.242-0.261,3.112-0.999c0.869-0.738,1.4-1.77,1.493-2.907c0.094-1.137-0.261-2.242-0.999-3.112
			c-0.737-0.87-1.77-1.401-2.906-1.494C271.59,203.391,271.471,203.386,271.353,203.386z M266.729,207.277h0.01H266.729z"/>
		<path style="opacity:0.3;fill:#FFFFFF;" d="M312.394,256.404l6.453-78.53c0.173-2.11-1.397-3.961-3.507-4.135l0,0
			c-2.11-0.173-3.961,1.397-4.134,3.507l-6.453,78.53c-0.436,5.303-3.482,10.014-8.15,12.601l-3.934,2.181l3.526,2.794
			c4.182,3.314,6.419,8.459,5.983,13.762l-8.626,104.979c-0.517,6.295-4.477,9.369-10.048,11.819
			c-1.663,0.731-1.259,3.195,0.552,3.344l0,0c8.746,0.719,16.419-5.789,17.138-14.535l8.626-104.979
			c0.436-5.303-1.801-10.448-5.983-13.762l-3.526-2.794l3.934-2.181C308.912,266.417,311.959,261.706,312.394,256.404z"/>
	</g>
</g>
<g id="Splash_2">
	<g>
		<path style="opacity:0.3;fill:#407BFF;" d="M416.191,378.441c-1.083-4.901-14.559-2.032-17.35-1.552
			c-5.414,0.931-10.708,2.565-15.845,4.577c-5.628,2.204-12.167,5.452-18.005,2.101c-3.375-1.943,8.324-5.776,9.385-6.167
			c4.927-1.815,9.797-3.862,14.348-6.573c1.849-1.101,5.429-3.73,3.883-6.407c-1.276-2.21-5.872-1.98-8.661-1.659
			c-8.829,1.019-17.112,3.347-24.676,6.223c-8.048,3.06-15.376,6.725-22.662,10.371c-2.761,1.382-5.666,2.806-9.188,3.306
			c-3.521,0.5-7.828-0.246-9.22-2.201c-1.371-1.927,0.396-4.223,0.813-6.183c0.494-2.322,0.402-4.727-0.692-6.973
			c-0.633-1.3-1.636-2.566-3.249-3.424c-3.809-2.024-9.577-1.259-13.399,0.324c-2.692,1.115-4.875,2.698-6.696,4.414
			c-4.218,3.975-6.771,8.779-7.882,13.553c-0.663,2.85-1.972,5.83-5.294,8.068c-5.363,3.612-15.181,3.404-22.692,1.59
			c-13.114-3.165-23.068-10.439-25.519-18.646c-1.168-3.913-1.745-7.952-7-9.527c-3.399-1.019-10.517-0.306-9,3.974
			c0.404,1.139,1.337,2.183,2.142,3.245c1.387,1.832,2.868,5.281-1.259,6.392c-1.258,0.339-2.707,0.287-4.077,0.195
			c-13.272-0.894-25.495-5.318-33.415-11.559c-2.779-2.189-4.87-4.69-6.465-7.335c-0.931-1.544-1.274-3.211-2.303-4.743
			c-0.882-1.315-2.192-2.542-4.02-3.328c-5.102-2.195-17.084-1.053-17.921,3.749c-0.453,2.6,1.165,5.421,2.011,7.889
			c0.11,0.322,0.22,0.666,0.099,0.985c-0.24,0.628-1.193,0.811-1.987,0.863c-10.704,0.709-21.094-3.449-30.08-7.79
			c-9.521-4.603-20.029-10.59-33.232-10.663c-2.781-0.015-5.486,0.088-8.11,0.934c-0.674,0.217-1.353,0.486-1.821,0.942
			c-0.71,0.693-0.795,1.718-0.444,2.578c0.351,0.86,1.078,1.58,1.863,2.215c4.038,3.263,9.596,4.581,14.71,6.264
			c15.861,5.22,30.604,11.601,43.781,18.95c1.407,0.785,3.912,2.618,1.931,3.952c-2.127,1.433-5.985,0.482-8.371,0.093
			c-4.303-0.702-8.43-1.814-12.619-2.868c-5.546-1.395-12.01-2.672-18.033-1.512c-3.171,0.612-6.016,1.913-7.493,3.671
			c-1.047,1.247-1.373,2.726-0.636,4.041c2.058,3.668,11.447,5.255,16.58,7.033c6.755,2.339,13.228,4.967,19.229,7.932
			c5.331,2.633,10.28,5.526,15.675,8.114c19.294,9.255,46.237,10.439,70.326,11.344c26.151,0.982,52.417,0.15,78.495-1.305
			c18.97-1.058,37.657-3.146,56.274-5.601c5.351-0.706,10.674-1.567,16.012-2.296c5.413-0.739,10.846-1.579,16-3.174
			c1.86-0.576,3.798-1.327,5.143-2.575c1.429-1.326,1.887-3.067-0.676-3.575c-5.365-1.064-10.883,0.15-16.124,1.109
			c-5.873,1.075-11.702,2.316-17.472,3.721c-2.627,0.639-5.254,1.315-7.965,1.634c-2.711,0.319-5.539,0.266-8.105-0.523
			c-0.863-0.265-1.805-0.748-1.857-1.508c-0.046-0.681,0.671-1.236,1.415-1.531c10.783-4.274,22.25-6.99,33.789-9.497
			c7.828-1.701,15.801-2.744,23.69-4.068c7.187-1.207,14.765-1.493,20.946-6.053c1.161-0.857,2.281-1.908,2.756-3.314
			C416.269,379.784,416.327,379.052,416.191,378.441z"/>
		<path style="opacity:0.3;fill:#407BFF;" d="M106.754,337.957c-2.935-8.338-13.371-23.087-15.57-14.371
			C89.951,328.477,106.754,337.957,106.754,337.957z"/>
		<path style="opacity:0.3;fill:#407BFF;" d="M368.927,354.357c5.583-5.092,12.547-8.124,13.439-3.65
			C383.209,354.936,368.927,354.357,368.927,354.357z"/>
		<path style="opacity:0.3;fill:#407BFF;" d="M139.994,313.869c-3.827-2.031-6.809-5.205-4.565-6.551
			C137.549,306.046,139.994,313.869,139.994,313.869z"/>
	</g>
</g>
</svg>
